<?xml version="1.0" encoding="UTF-8" standalone="no"?>
<!-- Created with Inkscape (http://www.inkscape.org/) -->

<svg
   version="1.1"
   id="svg4663"
   width="379.25082"
   height="379.53107"
   viewBox="0 0 379.25082 379.53106"
   sodipodi:docname="b-queen.svg"
   inkscape:version="1.1.1 (3bf5ae0d25, 2021-09-20)"
   xmlns:inkscape="http://www.inkscape.org/namespaces/inkscape"
   xmlns:sodipodi="http://sodipodi.sourceforge.net/DTD/sodipodi-0.dtd"
   xmlns="http://www.w3.org/2000/svg"
   xmlns:svg="http://www.w3.org/2000/svg">
  <sodipodi:namedview
     id="namedview11"
     pagecolor="#ffffff"
     bordercolor="#666666"
     borderopacity="1.0"
     inkscape:pageshadow="2"
     inkscape:pageopacity="0.0"
     inkscape:pagecheckerboard="0"
     showgrid="false"
     height="379.53107px"
     inkscape:zoom="1.4376854"
     inkscape:cx="119.63674"
     inkscape:cy="231.97008"
     inkscape:window-width="1920"
     inkscape:window-height="1004"
     inkscape:window-x="0"
     inkscape:window-y="0"
     inkscape:window-maximized="1"
     inkscape:current-layer="svg4663" />
  <defs
     id="defs4667" />
  <g
     id="g4669"
     transform="translate(-58.601873,-84.313332)">
    <g
       id="g5145">
      <path
         style="fill:#000000;stroke-width:1.33333"
         d="m 220.3289,449.90037 c -25.92916,-2.2867 -52.94044,-7.60692 -78.29336,-15.42085 -9.8471,-3.03495 -12.71266,-4.60196 -18.03997,-9.86507 -5.96431,-5.89241 -6.33334,-6.6668 -6.33334,-13.29009 0,-4.51375 0.89644,-8.52232 2.50253,-11.19048 1.37639,-2.28655 3.49326,-7.213 4.70417,-10.94767 1.2109,-3.73466 4.82568,-9.86444 8.03284,-13.62172 4.56824,-5.35184 6.03091,-8.28349 6.75328,-13.53576 0.8669,-6.30309 0.58361,-7.24343 -4.73326,-15.71161 -3.11044,-4.954 -9.31629,-12.91407 -13.79078,-17.68902 -4.47449,-4.77496 -9.1111,-11.07496 -10.30358,-14 -1.19247,-2.92505 -7.41032,-32.11412 -13.81744,-64.86461 l -11.6493,-59.54634 -6.18256,-1.55392 c -22.7023,-5.70596 -28.03363,-34.8443 -8.84066,-48.31853 17.52046,-12.30007 41.99143,0.83552 41.99143,22.54027 0,5.42098 -3.12249,13.31894 -6.82301,17.25797 l -2.69574,2.86948 27.09271,41.68361 27.09271,41.68361 0.81993,-21.86824 c 0.45096,-12.02752 1.01991,-35.92382 1.26433,-53.10289 l 0.44439,-31.23465 -5.30086,-2.25128 c -5.64645,-2.39805 -13.26366,-10.11333 -15.31711,-15.51432 -3.13919,-8.25671 -0.41745,-21.47161 5.81962,-28.25611 4.17166,-4.53781 12.64536,-8.11216 19.31252,-8.14636 15.12076,-0.0776 26.95718,11.55701 26.95718,26.49747 0,8.81849 -1.76307,13.05573 -8.15751,19.60529 l -5.33593,5.46536 19.08005,50.18371 c 10.49403,27.60103 19.39144,50.19162 19.77201,50.2013 0.38058,0.009 5.72058,-24.40487 11.86667,-54.25453 10.47379,-50.86796 11.02552,-54.35958 8.79609,-55.66666 -10.06733,-5.90231 -15.35472,-14.4138 -15.35472,-24.71759 0,-8.49503 2.37663,-14.1011 8.41436,-19.84807 6.60042,-6.28256 15.92431,-8.615356 25.0123,-6.257964 24.29382,6.301744 27.0759,37.605844 4.51868,50.844624 -2.27387,1.33452 -1.77016,4.52057 8.80077,55.66666 6.16697,29.83811 11.52195,54.24319 11.89995,54.23353 0.378,-0.009 9.2733,-22.60027 19.76733,-50.2013 l 19.08005,-50.18371 -5.33593,-5.46536 c -6.39444,-6.54956 -8.15751,-10.7868 -8.15751,-19.60529 0,-28.77966 40.16916,-36.785374 51.2697,-10.21804 2.31146,5.5321 2.70389,15.16703 0.81962,20.12304 -2.05345,5.40099 -9.67066,13.11627 -15.31712,15.51432 l -5.30085,2.25128 0.4444,31.23465 c 0.24441,17.17907 0.81336,41.06757 1.26432,53.08555 l 0.81993,21.8509 27.08676,-41.67259 27.08676,-41.6726 -2.68978,-2.86316 c -6.18316,-6.58168 -8.33626,-17.35723 -5.25396,-26.29447 2.53042,-7.33707 6.53652,-11.71824 14.09762,-15.41755 5.95188,-2.91197 8.22682,-3.3416 14.04551,-2.65245 29.73136,3.52124 32.47144,45.59551 3.44453,52.89109 l -6.18256,1.55392 -11.6493,59.54634 c -6.40712,32.75049 -12.62496,61.93956 -13.81744,64.86461 -1.19247,2.92504 -5.82908,9.22504 -10.30358,14 -4.47449,4.77495 -10.68034,12.73502 -13.79078,17.68902 -5.29852,8.43896 -5.59783,9.42546 -4.74375,15.63535 0.61029,4.43734 2.25008,8.29102 4.96121,11.65938 5.30548,6.59163 7.70876,12.43203 7.70876,18.73366 0,2.81673 0.89027,6.286 1.97838,7.70949 3.45306,4.51743 4.92616,12.08652 3.4321,17.63499 -3.0209,11.21882 -13.94413,16.5414 -50.88057,24.79265 -31.44661,7.02487 -73.92132,10.05833 -103.86324,7.41773 z m 53.40015,-8.01617 c 30.88474,-2.45524 71.22298,-10.81299 91.5854,-18.97573 6.93612,-2.7805 7.72228,-3.50076 8.10542,-7.42599 0.49798,-5.10147 -1.61482,-8.18247 -5.58756,-8.14811 -1.56021,0.0135 -9.28464,2.08291 -17.16538,4.59872 -33.86862,10.81199 -64.42548,15.45042 -101.8955,15.46734 -39.84888,0.018 -74.84597,-5.55876 -108.9846,-17.36664 -13.04008,-4.51031 -17.38126,-3.08044 -16.5489,5.45078 0.38621,3.95847 1.14257,4.63187 8.4243,7.50019 11.27139,4.43988 45.39008,13.02407 62,15.59907 28.95918,4.48948 52.7652,5.47077 80.06682,3.30037 z m 3.26652,-33.29343 c 19.74302,-1.67596 42.002,-5.49952 61.45346,-10.55625 24.04411,-6.25065 27.15304,-8.13712 25.3367,-15.37403 -1.33818,-5.33166 -6.06108,-5.5102 -22.59199,-0.85398 -31.96885,9.00456 -58.69004,12.64228 -92.86484,12.64228 -34.1748,0 -60.89599,-3.63772 -92.86484,-12.64228 -16.53091,-4.65622 -21.25382,-4.47768 -22.59198,0.85398 -1.81455,7.22972 1.21612,9.07307 25.30995,15.39435 38.6091,10.12952 80.17778,13.81567 118.81354,10.53593 z m 74.72726,-48.55366 c 4.08935,-4.08934 4.08935,-5.36521 0,-9.45454 l -3.27272,-3.27273 H 248.3289 148.20769 l -3.27273,3.27273 c -1.8,1.8 -3.27273,3.92727 -3.27273,4.72727 0,0.8 1.47273,2.92726 3.27273,4.72727 l 3.27273,3.27273 H 248.3289 348.45011 Z M 148.70445,333.92865 c 33.43764,-9.9344 54.93298,-13.34183 89.83033,-14.23985 40.98967,-1.05482 70.08164,2.6627 107.73331,13.76672 17.08081,5.03737 20.91348,4.90305 22.7224,-0.79636 1.75524,-5.53026 -2.17523,-8.57379 -16.85986,-13.05534 -67.57448,-20.62282 -139.44076,-20.6837 -207.13506,-0.1755 -12.87735,3.90124 -18,7.13493 -18,11.36256 0,2.15602 4.69591,7.18562 6.70888,7.18562 0.75656,0 7.50656,-1.82153 15,-4.04785 z"
         id="path4730" />
      <path
         style="fill:#ffffff;fill-rule:evenodd;stroke:#000000;stroke-width:0;stroke-linecap:round;stroke-linejoin:round"
         d="m 129.57698,334.24576 c -1.15331,-1.4662 -2.09693,-3.24687 -2.09693,-3.95705 0,-6.86371 38.33776,-17.99918 80.43384,-23.36255 19.24989,-2.45259 62.17024,-2.46037 80.93972,-0.0147 25.59291,3.33481 54.69856,9.85791 70.54629,15.8107 9.23673,3.46955 11.97131,9.07922 6.25252,12.82632 -2.73482,1.79192 -3.69936,1.6425 -21.65137,-3.35414 -39.77136,-11.06971 -73.17035,-14.71467 -114.83894,-12.53283 -31.28234,1.638 -48.63816,4.54099 -78.91617,13.19978 -7.78957,2.22763 -15.15492,4.05023 -16.36744,4.05023 -1.21253,0 -3.14821,-1.19961 -4.30152,-2.6658 z"
         id="path4904" />
      <path
         style="fill:#ffffff;fill-rule:evenodd;stroke:#000000;stroke-width:0;stroke-linecap:round;stroke-linejoin:round"
         d="m 145.88996,359.88063 c -3.91128,-4.03541 -3.96153,-4.74916 -0.61441,-8.72699 l 2.61931,-3.11286 h 100.48889 100.48889 l 2.61931,3.11286 c 3.3786,4.01524 3.30414,4.93214 -0.71704,8.82962 l -3.33634,3.23371 h -99.15745 -99.15745 z"
         id="path4943" />
      <path
         style="fill:#ffffff;fill-rule:evenodd;stroke:#000000;stroke-width:0;stroke-linecap:round;stroke-linejoin:round"
         d="m 231.18406,408.61048 c -25.14049,-1.16535 -47.80406,-4.68829 -73.88523,-11.48511 -21.83851,-5.69116 -26.38211,-8.4813 -23.53375,-14.45161 1.97187,-4.13312 7.18761,-4.09004 23.47171,0.19388 33.39176,8.7845 56.3045,11.71912 91.37112,11.70264 34.15411,-0.0161 54.18815,-2.47986 86.5057,-10.63858 24.34978,-6.14721 28.10336,-5.98468 28.10336,1.21685 0,3.97607 -1.818,5.34617 -11.08177,8.35145 -34.81445,11.29428 -80.405,16.98993 -120.95114,15.11048 z"
         id="path4982" />
      <path
         style="fill:#ffffff;fill-rule:evenodd;stroke:#000000;stroke-width:0;stroke-linecap:round;stroke-linejoin:round"
         d="m 216.51374,440.99986 c -27.68973,-2.78336 -71.58566,-12.69911 -86.71961,-19.58927 -5.80187,-2.64146 -7.51017,-5.79714 -5.51213,-10.18236 1.77817,-3.90265 4.95011,-3.9184 16.9291,-0.084 38.76207,12.40743 64.58978,16.27481 108.1844,16.1993 40.01744,-0.0693 60.2413,-2.95436 98.65314,-14.07346 11.13823,-3.22419 20.24465,-5.34589 21.38767,-4.98312 2.47646,0.786 4.10547,4.84483 3.27404,8.15753 -0.77271,3.07872 -4.86524,5.23862 -17.58735,9.28199 -20.68474,6.57408 -48.49052,12.13643 -74.42837,14.88889 -15.24675,1.61794 -49.84817,1.82525 -64.18089,0.38452 z"
         id="path5021" />
    </g>
  </g>
</svg>
