<?xml version="1.0" encoding="UTF-8" standalone="no"?>
<!-- Created with Inkscape (http://www.inkscape.org/) -->

<svg
   version="1.1"
   id="svg854"
   width="343.89783"
   height="347.90576"
   viewBox="0 0 343.89783 347.90576"
   xmlns="http://www.w3.org/2000/svg"
   xmlns:svg="http://www.w3.org/2000/svg">
  <defs
     id="defs858" />
  <g
     id="g860"
     transform="translate(-67.601793,-29.61006)">
    <g
       id="g4592">
      <path
         style="fill:#000000;fill-opacity:1;stroke-width:1.33333"
         d="m 201.83525,375.60344 c -26.6869,-3.64878 -52.11422,-11.72071 -69.66666,-22.11575 l -9,-5.33005 -0.0277,-36.94046 -0.0277,-36.94045 -8.30566,-5.29457 c -11.17547,-7.12399 -28.878969,-24.32975 -35.517429,-34.51884 -14.11995,-21.67214 -15.42546,-43.4 -4.03247,-67.11358 9.14543,-19.03548 24.45068,-32.26209 43.068759,-37.2195 10.06524,-2.68007 29.19488,-2.33622 41.22682,0.74104 10.28914,2.63152 25.24506,9.12304 34.94866,15.16924 l 5.33333,3.32314 0.0215,-12.21013 c 0.0196,-11.14877 0.40796,-12.98396 4.46827,-21.11242 5.41829,-10.84708 14.33093,-20.431073 22.26272,-23.93968 l 5.91423,-2.616155 V 77.547668 65.61006 h -10 c -8.22223,0 -10.47408,-0.474074 -12.66667,-2.666666 -3.20348,-3.203484 -3.38462,-6.381616 -0.59106,-10.369992 1.84865,-2.639323 3.23366,-2.963342 12.66666,-2.963342 h 10.59107 v -7.793349 c 0,-8.383731 2.35415,-12.206651 7.51681,-12.206651 5.36742,0 7.58827,3.1968 8.21207,11.82083 l 0.59163,8.17917 h 9.63309 c 10.72159,0 14.0464,1.979474 14.0464,8.362716 0,5.36435 -4.45324,7.637284 -14.96335,7.637284 h -9.03665 v 11.872723 11.872721 l 7.18465,4.054763 c 13.84272,7.812353 23.53763,23.845633 24.54136,40.586113 0.34251,5.71247 0.99428,10.21247 1.44838,10 0.45408,-0.21248 5.32561,-2.63933 10.82561,-5.39301 15.55527,-7.78804 29.33096,-10.71885 47.17216,-10.03597 21.84036,0.83594 37.31848,7.3262 51.77297,21.70933 14.72579,14.65309 19.9987,26.57387 20.05222,45.33333 0.0395,13.81702 -3.35278,24.60318 -11.85862,37.70676 -7.09524,10.9305 -26.09798,28.98826 -40.28121,38.27808 l -12.19085,7.98484 -0.1052,33.3485 c -0.0589,18.65488 -0.39254,31.41941 -0.95402,33.3821 -0.16704,0.58391 -0.27887,-3.124 -0.504,-3.741 -1.63019,-4.4677 -8.55221,-8.20578 -27.24124,-14.71101 -55.51105,-19.32213 -132.8055,-16.60191 -182.80878,6.43359 -10.80788,4.97897 -13.4607,9.11476 -9.00474,14.03853 3.04789,3.36788 4.69867,3.29167 12.32904,-0.56925 49.23662,-24.91346 136.71775,-25.45472 189.92672,-1.17512 10.19867,4.6537 10.3423,4.67728 14,2.29677 2.475,-1.61078 3.73506,-3.17249 3.18039,-2.34795 -0.15553,0.2312 -0.96535,1.74944 -1.30767,2.16716 -4.83205,5.89631 -28.19656,16.17648 -49.12281,21.61358 -26.97129,7.00773 -65.3176,9.17125 -93.72096,5.2878 z M 145.16859,310.4663 c 24.29863,-10.79758 53.76254,-16.05296 90,-16.05296 36.23745,0 65.70137,5.25538 90,16.05296 14.1353,6.28132 15.5926,6.54058 18.5286,3.29632 4.45732,-4.92528 1.9934,-8.80048 -8.87347,-13.95596 -54.16268,-25.69592 -142.76255,-25.73664 -199.27162,-0.0916 -10.88615,4.94038 -13.46926,9.01194 -8.91212,14.04752 2.93601,3.24426 4.3933,2.985 18.52861,-3.29632 z m -5.93847,-32.22076 c 26.96522,-13.6643 75.43793,-21.3109 115.1222,-18.16058 30.52796,2.42345 53.62016,7.81744 75.0334,17.52666 4.85011,2.19915 9.43815,3.99844 10.19563,3.99844 2.51112,0 6.2539,-4.36857 6.2539,-7.29953 0,-2.12477 2.93207,-4.87789 11.11374,-10.43549 30.4876,-20.7094 47.55293,-45.44692 47.55293,-68.93164 0,-4.24551 -1.26263,-11.807 -2.80583,-16.80331 -2.41404,-7.81577 -4.0442,-10.32259 -11.67482,-17.95321 -14.10095,-14.10095 -28.79715,-20.10063 -49.23642,-20.10063 -15.6773,0 -27.56257,2.94313 -43.80021,10.8462 -21.1246,10.28159 -41.02507,27.63348 -51.57861,44.97313 -2.33059,3.8292 -4.63478,6.9792 -5.1204,7 -0.48563,0.0208 -3.60518,-3.77701 -6.93231,-8.43957 -16.00189,-22.42465 -39.8934,-40.11875 -65.96431,-48.85331 -31.83767,-10.66658 -60.35224,-6.11174 -76.889999,12.28223 -7.35112,8.17621 -10.63008,14.22957 -13.33677,24.62127 -5.84602,22.44434 1.68945,44.17485 22.18002,63.96194 7.450969,7.19516 24.074089,19.43674 28.311719,20.84928 0.93981,0.31327 0.63281,1.35491 -0.83063,2.81836 -2.91404,2.91403 -2.9519,5.89099 -0.11478,9.02596 2.90521,3.21022 4.60718,3.08432 12.52156,-0.9262 z m 177.2718,-20.07998 c -14.76984,-5.11196 -34.98847,-9.26562 -54.4746,-11.1911 -7.59437,-0.75041 -14.19437,-1.36393 -14.66667,-1.36337 -0.4723,5.7e-4 -0.6458,-5.84669 -0.38554,-12.99392 0.35449,-9.73524 1.15412,-14.33433 3.18768,-18.33437 4.97645,-9.78872 13.37849,-21.118 21.8579,-29.47311 30.52218,-30.07472 72.08591,-39.72435 99.21199,-23.03351 29.66276,18.2517 25.35293,53.70324 -9.9652,81.97116 -11.7962,9.44146 -27.54996,19.30919 -30.332,18.99915 -0.97179,-0.10829 -7.46689,-2.16972 -14.43356,-4.58093 z m -177.5439,0.40752 c -1.94914,-1.62966 -7.3102,-5.06302 -11.91346,-7.62968 -12.7305,-7.09822 -28.138109,-22.76867 -33.481219,-34.05239 -3.85775,-8.14689 -4.39251,-10.60516 -4.37638,-20.11815 0.0165,-9.72649 0.49478,-11.77113 4.66667,-19.94981 8.657439,-16.97224 22.568849,-24.03661 45.130969,-22.91801 23.25824,1.15312 47.78695,12.31653 67.64564,30.78661 11.17605,10.39459 17.16615,18.12115 23.06399,29.75001 3.65745,7.21148 4.14102,9.47503 4.14102,19.3838 v 11.21886 l -20.33333,1.63621 c -26.08696,2.09921 -46.29479,6.26999 -69.57158,14.35915 -0.78563,0.27302 -3.02317,-0.83695 -4.97232,-2.4666 z"
         id="path1315" />
      <path
         style="fill:#ffffff;fill-opacity:1;fill-rule:evenodd;stroke:#000000;stroke-width:0;stroke-linecap:round;stroke-linejoin:round"
         d="m 127.38023,279.18561 c -3.07591,-3.07591 -3.16363,-5.34432 -0.33658,-8.70407 1.75391,-2.08441 1.67174,-2.88504 -0.40601,-3.95571 -6.35419,-3.27435 -21.16152,-14.60051 -28.116812,-21.50662 C 87.352141,233.9295 80.535129,222.83676 77.1169,210.19043 c -0.966564,-3.57597 -1.171939,-5.79052 -1.191081,-12.84344 -0.02408,-8.87439 0.269593,-10.85875 2.759063,-18.64276 2.857249,-8.93398 7.114649,-15.66788 14.350227,-22.69766 7.030041,-6.83009 14.203061,-10.833 24.212141,-13.51161 26.07307,-6.97761 60.8318,2.75477 89.95377,25.18689 6.96209,5.36276 18.74646,17.52984 25.31562,26.13775 7.44205,9.7517 6.90402,9.12022 7.77052,9.12022 0.40884,0 3.08786,-3.45682 5.95336,-7.68182 5.6455,-8.32393 10.73586,-14.41895 16.96498,-20.31328 18.69956,-17.69455 43.92984,-30.86665 64.67783,-33.76669 6.28143,-0.87798 19.95181,-0.75615 26.09617,0.23258 13.58634,2.18626 23.83615,7.59688 35.31813,18.64356 8.38878,8.07077 11.03952,12.7372 13.46845,23.71023 1.42954,6.45818 1.64625,15.77471 0.48939,21.0397 -4.55897,20.74829 -19.91094,40.13372 -46.64459,58.89961 -7.36116,5.16722 -10.92074,8.4759 -10.92074,10.15097 0,2.65626 -3.89735,7.38476 -6.08672,7.38476 -0.43874,0 -5.06125,-1.81409 -10.27226,-4.03132 -20.64023,-8.78217 -37.68473,-13.18916 -62.93123,-16.27139 -12.90159,-1.5751 -39.88784,-1.96905 -53.54883,-0.78173 -21.42132,1.8618 -40.67468,5.57875 -56.77342,10.96037 -5.93982,1.98561 -8.77857,3.14938 -19.98549,8.19324 -2.34366,1.0548 -4.80051,1.92075 -5.45967,1.92432 -0.68661,0.004 -2.07564,-0.87067 -3.25229,-2.04732 z m 208.50254,-18.11228 c 4.74311,-2.29371 17.09523,-10.4413 23.98114,-15.8182 16.43602,-12.83418 27.29197,-28.00354 30.31071,-42.35412 1.01985,-4.8482 1.01332,-13.24064 -0.0135,-17.29358 -3.46029,-13.6587 -15.68227,-25.05098 -31.95729,-29.78788 -28.8793,-8.40542 -67.40572,6.2025 -92.08978,34.91733 -9.56679,11.12899 -16.14637,21.60181 -17.92048,28.52431 -0.79048,3.08442 -1.16032,6.78879 -1.40571,14.07966 -0.18315,5.44169 -0.18383,10.48832 -0.002,11.21474 0.32738,1.30438 0.45669,1.33234 10.42046,2.25277 24.41062,2.25502 42.60381,6.0515 65.31302,13.62926 4.39437,1.46634 8.24213,2.67184 8.55059,2.67889 0.30845,0.007 2.474,-0.91238 4.81234,-2.04318 z m -184.22102,-2.21136 c 22.04129,-7.13659 40.66006,-10.39856 73.2499,-12.83319 l 8.9219,-0.66652 v -10.17997 c 0,-12.02863 -0.40146,-14.02254 -4.38683,-21.78826 -10.41918,-20.30239 -30.68705,-39.17892 -53.81514,-50.12085 -19.01314,-8.99514 -40.79334,-12.06033 -56.5842,-7.96324 -11.39181,2.9557 -20.004478,10.50126 -26.094809,22.86163 -3.397847,6.89597 -4.003291,9.75938 -3.990697,18.87376 0.01184,8.56929 0.923708,12.77686 4.216431,19.45561 6.338486,12.85659 19.243225,25.98221 34.739215,35.33384 3.4138,2.06017 8.16196,5.08471 10.55148,6.72118 2.38952,1.63648 4.48042,2.97541 4.64645,2.97541 0.16603,0 4.01187,-1.20123 8.5463,-2.6694 z"
         id="path2348" />
      <path
         style="fill:#ffffff;fill-opacity:1;fill-rule:evenodd;stroke:#000000;stroke-width:0;stroke-linecap:round;stroke-linejoin:round"
         d="m 127.03258,313.49654 c -0.95057,-1.00789 -1.88754,-2.467 -2.08217,-3.24247 -0.85858,-3.42085 3.94012,-7.39819 14.13205,-11.71318 53.68478,-22.72868 132.65003,-23.69151 186.63329,-2.27564 10.45484,4.14758 17.16389,7.98394 18.91373,10.81524 1.37443,2.22388 1.0224,3.91997 -1.33171,6.41605 -2.55056,2.70438 -4.24206,2.5019 -14.11979,-1.69025 -27.31426,-11.59229 -46.81712,-15.77634 -80.76574,-17.32709 -10.0827,-0.46057 -16.65405,-0.4602 -26.63252,0.001 -33.45877,1.54817 -53.76529,5.91088 -80.62735,17.32222 -9.87736,4.19603 -11.56843,4.39887 -14.11979,1.69363 z"
         id="path2387" />
      <path
         style="fill:#ffffff;fill-opacity:1;fill-rule:evenodd;stroke:#000000;stroke-width:0;stroke-linecap:round;stroke-linejoin:round"
         d="m 129.22907,350.14146 c -1.3346,-0.73633 -3.10086,-2.51031 -3.76393,-3.7804 -2.30381,-4.41284 1.47557,-8.08391 13.79915,-13.40369 19.45754,-8.39934 42.42527,-13.86111 69.83695,-16.60736 9.2352,-0.92523 41.77852,-1.074 50.38091,-0.23031 26.95321,2.64347 47.07379,7.18729 67.99374,15.35499 13.81929,5.39542 18.72174,9.17601 18.16121,14.00526 -0.10976,0.94562 -0.6928,1.57407 -2.78844,3.00559 -3.4501,2.35674 -3.83012,2.29963 -13.9765,-2.10042 -26.26279,-11.38906 -54.04476,-16.92465 -89.05086,-17.74349 -37.40432,-0.87494 -75.5674,6.13494 -99.82978,18.33698 -3.87199,1.9473 -8.19615,3.64558 -9.2358,3.62727 -0.38909,-0.007 -1.07609,-0.21584 -1.52665,-0.46442 z"
         id="path4469" />
    </g>
  </g>
</svg>
