<?xml version="1.0" encoding="UTF-8" standalone="no"?>
<!-- Created with Inkscape (http://www.inkscape.org/) -->

<svg
   version="1.1"
   id="svg3304"
   width="281.33334"
   height="312.04346"
   viewBox="0 0 281.33334 312.04346"
   xmlns="http://www.w3.org/2000/svg"
   xmlns:svg="http://www.w3.org/2000/svg">
  <defs
     id="defs3308" />
  <g
     id="g3310"
     transform="translate(-99.533831,-46.497349)">
    <g
       id="g4199">
      <path
         style="fill:#000000;stroke-width:1.33333"
         d="m 102.68155,355.99194 c -3.019849,-2.44532 -3.147719,-3.26255 -3.147719,-20.1178 0,-16.85526 0.12787,-17.67248 3.147719,-20.1178 2.57161,-2.08238 5.31693,-2.54887 15,-2.54887 h 11.85229 v -17.73333 c 0,-18.0249 0.7327,-20.93334 5.27358,-20.93334 1.14047,0 4.77047,-4.35 8.06666,-9.66666 l 5.99309,-9.66667 0.3736,-59.169 0.3736,-59.16901 -15.3736,-15.56532 -15.3736,-15.56533 V 78.806472 c 0,-34.857722 -2.19581,-32.265676 27.33334,-32.265676 26.32648,0 27.33333,0.466592 27.33333,12.666667 v 7.333333 h 17.33333 17.33334 v -7.924394 c 0,-11.951506 0.32886,-12.075606 32,-12.075606 31.67113,0 32,0.124094 32,12.075606 v 7.924394 h 17.33333 17.33333 v -7.333333 c 0,-12.200075 1.00686,-12.666667 27.33334,-12.666667 29.52915,0 27.33333,-2.592046 27.33333,32.265676 v 26.932338 l -15.3736,15.56533 -15.3736,15.56532 0.3736,59.16901 0.3736,59.169 5.9931,9.66667 c 3.2962,5.31666 6.9262,9.66666 8.06666,9.66666 4.54087,0 5.27358,2.90844 5.27358,20.93334 v 17.73333 h 11.85229 c 9.68307,0 12.42839,0.46649 15,2.54887 3.01984,2.44532 3.14771,3.26254 3.14771,20.1178 0,16.85525 -0.12787,17.67248 -3.14771,20.1178 -3.05268,2.47192 -7.20448,2.54886 -137.51896,2.54886 -130.31449,0 -134.46628,-0.0769 -137.51896,-2.54886 z M 365.53384,336.20747 V 328.5408 H 240.20051 114.86717 v 7.66667 7.66667 h 125.33334 125.33333 z m -29.33333,-35 v -12 h -96 -96 v 12 12 h 96 96 z m -10.66667,-27.31331 c 0,-0.35564 -1.8,-3.572 -4,-7.14746 -2.2,-3.57546 -4,-7.18447 -4,-8.02003 0,-1.11925 -20.35905,-1.5192 -77.33333,-1.5192 -56.97428,0 -77.33334,0.39995 -77.33334,1.5192 0,0.83556 -1.8,4.44457 -4,8.02003 -2.2,3.57546 -4,6.79182 -4,7.14746 0,0.35566 38.4,0.64664 85.33334,0.64664 46.93333,0 85.33333,-0.29098 85.33333,-0.64664 z m -9.33333,-82.68669 v -58 h -76 -76 v 58 58 h 76 76 z m 12.28753,-72.28321 c 3.50852,-3.45577 6.37913,-6.75577 6.37913,-7.33333 0,-0.57757 -42.6,-1.05014 -94.66666,-1.05014 -52.06667,0 -94.66667,0.4294 -94.66667,0.95421 0,0.52482 2.82744,3.82482 6.28321,7.33334 l 6.28322,6.37913 h 82.00432 82.00432 z M 346.86718,78.540796 V 61.207463 h -12.66667 -12.66667 v 7.561679 c 0,12.547812 0.27964,12.438321 -31.76833,12.438321 -32.41815,0 -32.23167,0.07062 -32.23167,-12.206651 v -7.793349 h -17.33333 -17.33334 v 7.561679 c 0,12.547812 0.27964,12.438321 -31.76833,12.438321 -32.41815,0 -32.23167,0.07062 -32.23167,-12.206651 V 61.207463 H 146.20051 133.53384 V 78.540796 95.87413 h 106.66667 106.66667 z"
         id="path3314" />
      <path
         style="fill:#ffffff;fill-rule:evenodd;stroke:#000000;stroke-width:0;stroke-linecap:round;stroke-linejoin:round;stroke-miterlimit:4;stroke-dasharray:none"
         d="m 164.27889,191.18313 v -57.88487 h 75.82103 75.82102 v 57.88487 57.88486 h -75.82102 -75.82103 z"
         id="path3587" />
      <path
         style="fill:#ffffff;fill-rule:evenodd;stroke:#000000;stroke-width:0;stroke-linecap:round;stroke-linejoin:round;stroke-miterlimit:4;stroke-dasharray:none"
         d="m 153.33254,120.02914 c -2.70384,-2.81398 -5.48021,-5.82859 -6.1697,-6.69914 l -1.25362,-1.58283 1.94923,-0.33264 c 2.58719,-0.44152 177.32179,-0.43087 182.4318,0.0111 2.18597,0.18908 3.97449,0.52173 3.97449,0.73923 0,0.21749 -2.78059,3.2271 -6.17908,6.68801 l -6.17908,6.29257 H 240.0776 158.24862 Z"
         id="path3800" />
      <path
         style="fill:#ffffff;fill-rule:evenodd;stroke:#000000;stroke-width:0;stroke-linecap:round;stroke-linejoin:round;stroke-miterlimit:4;stroke-dasharray:none"
         d="m 166.82664,274.0362 c -6.33371,-0.0632 -11.51583,-0.25901 -11.51583,-0.43518 0,-0.17617 1.03152,-2.05356 2.29226,-4.17196 1.26074,-2.11841 3.09941,-5.4386 4.08593,-7.37821 l 1.79367,-3.52656 1.92676,-0.22853 c 8.33738,-0.98888 144.23495,-0.91604 149.80205,0.0803 2.24872,0.40244 2.02959,0.22457 2.84545,2.30967 0.35091,0.89681 2.12622,4.19869 3.94514,7.33752 l 3.30713,5.70696 -13.15266,0.2498 c -12.81293,0.24334 -122.3219,0.28569 -145.3299,0.0562 z"
         id="path3956" />
      <path
         style="fill:#ffffff;fill-rule:evenodd;stroke:#000000;stroke-width:0;stroke-linecap:round;stroke-linejoin:round;stroke-miterlimit:4;stroke-dasharray:none"
         d="m 144.30453,301.24591 v -11.82156 h 95.79539 95.79538 v 11.82156 11.82155 h -95.79538 -95.79539 z"
         id="path3995" />
      <path
         style="fill:#ffffff;fill-rule:evenodd;stroke:#000000;stroke-width:0;stroke-linecap:round;stroke-linejoin:round;stroke-miterlimit:4;stroke-dasharray:none"
         d="m 114.95446,336.09912 v -7.54134 h 125.14546 125.14545 v 7.54134 7.54134 H 240.09992 114.95446 Z"
         id="path4034" />
      <path
         style="fill:#ffffff;fill-rule:evenodd;stroke:#000000;stroke-width:0;stroke-linecap:round;stroke-linejoin:round;stroke-miterlimit:4;stroke-dasharray:none"
         d="M 133.7059,78.674506 V 61.553629 h 12.38678 12.38678 l 0.16648,7.031789 c 0.19753,8.342687 0.62424,9.722524 3.38419,10.943384 3.56271,1.575956 6.87408,1.779505 28.94918,1.779505 21.9688,0 25.67253,-0.223692 28.71231,-1.734122 2.85584,-1.419037 3.0678,-2.111172 3.21788,-10.507937 l 0.13429,-7.512619 h 17.03715 17.03716 l 0.18023,7.031789 c 0.2124,8.286588 0.60103,9.557675 3.32339,10.869805 3.41003,1.643576 6.68948,1.853084 29.00645,1.853084 21.96881,0 25.67253,-0.223692 28.71231,-1.734122 2.85584,-1.419037 3.0678,-2.111172 3.21789,-10.507937 l 0.13428,-7.512619 h 12.40064 12.40065 V 78.674506 95.795383 H 240.09992 133.7059 Z"
         id="path4073" />
    </g>
  </g>
</svg>
