<?xml version="1.0" encoding="UTF-8" standalone="no"?>
<!-- Created with Inkscape (http://www.inkscape.org/) -->

<svg
   version="1.1"
   id="svg4291"
   width="330.38647"
   height="330.99454"
   viewBox="0 0 330.38648 330.99454"
   xmlns="http://www.w3.org/2000/svg"
   xmlns:svg="http://www.w3.org/2000/svg">
  <defs
     id="defs4295" />
  <g
     id="g4297"
     transform="translate(-79.09721,-29.675038)">
    <g
       id="g4559">
      <path
         style="fill:#000000;stroke-width:1.33333"
         d="m 172.27856,359.2174 c -2.93954,-1.49252 -3.38028,-2.6752 -3.73077,-10.01104 -0.717,-15.00703 3.72416,-30.57964 13.25796,-46.48802 2.46004,-4.1049 13.88048,-17.20981 25.37875,-29.122 11.49825,-11.91218 22.96158,-24.88634 25.47406,-28.83146 8.51339,-13.3678 13.369,-27.3594 15.42691,-44.4533 l 1.01076,-8.3958 -14.07551,12.64046 c -7.74152,6.95225 -20.30897,17.22938 -27.92768,22.83808 -7.6187,5.60868 -17.40824,12.82818 -21.7545,16.04332 -4.34627,3.21514 -12.51278,11.56304 -18.1478,18.5509 -13.05442,16.18844 -15.46738,17.94716 -25.63224,18.68243 -7.06075,0.51072 -8.50399,0.19549 -11.35126,-2.47937 -1.7941,-1.68548 -3.26201,-3.85992 -3.26201,-4.83208 0,-1.3322 -2.85212,-1.76759 -11.57903,-1.76759 -9.04188,0 -12.84784,-0.61421 -17.369583,-2.80316 -10.973257,-5.31205 -17.46241,-18.2512 -18.63397,-37.15545 -0.641625,-10.35327 -0.337841,-12.37168 3.382889,-22.47664 8.544509,-23.20566 51.265164,-101.47054 62.250144,-114.043227 3.1132,-3.56316 7.30734,-9.733634 9.32028,-13.712157 l 3.65991,-7.23368 -2.51532,-5.57798 c -1.88716,-4.184972 -2.51532,-8.687835 -2.51532,-18.030673 0,-11.71109 0.19851,-12.605202 3.33333,-15.013547 3.9816,-3.058893 10.72043,-3.350328 15.87187,-0.686412 4.19965,2.171725 16.17149,14.804403 19.71527,20.803533 1.91718,3.245532 3.19641,3.929395 7.35028,3.929395 4.3553,0 5.45664,-0.66992 8.21988,-5 5.68725,-8.912107 11.52738,-15.460537 18.38096,-20.610212 7.60316,-5.712903 11.25952,-5.735513 17.31718,-0.107093 3.56712,3.314365 7.81124,15.309933 7.81124,22.077688 0,3.024108 0.70289,3.639878 5,4.380218 24.67401,4.251044 39.26125,8.726902 56.33333,17.284952 40.11863,20.111048 67.77647,58.348255 82.56103,114.141345 9.4702,35.73808 13.39172,69.4386 14.3321,123.16643 0.6027,34.43384 0.41872,40.37108 -1.3221,42.66666 -1.99135,2.62595 -3.77982,2.67164 -117.12996,2.99231 -90.90218,0.25717 -115.8087,-0.0303 -118.44108,-1.36683 z M 394.93353,322.59193 C 394.8982,251.22636 384.75189,193.92944 364.97605,153.42057 342.52417,107.43009 308.02141,83.116216 253.81843,75.088475 c -7.6085,-1.126856 -13.30028,-2.685531 -14.61777,-4.003027 -1.43103,-1.431027 -2.4692,-5.783293 -3.08287,-12.924129 -0.50888,-5.921584 -1.34071,-11.172162 -1.84849,-11.667951 -1.32618,-1.294831 -10.95528,9.872957 -15.63118,18.128945 -2.18996,3.866711 -5.0773,7.616711 -6.41633,8.333334 -1.33901,0.716624 -7.30131,1.302952 -13.24951,1.302952 -12.38961,0 -12.26116,0.0843 -22.99469,-15.091342 -3.46553,-4.899762 -6.99709,-8.908658 -7.84791,-8.908658 -2.15456,0 -0.46336,11.533678 2.31239,15.77 4.53736,6.924894 -1.14975,22.486924 -14.08345,38.537491 -8.85334,10.98689 -40.70299,67.08727 -52.43472,92.35917 -10.779156,23.21994 -12.035416,29.99578 -8.29118,44.71987 1.407284,5.53411 3.255333,9.07792 6.08699,11.6724 3.7274,3.4152 4.80879,3.69292 12.97919,3.33333 l 8.913,-0.39226 0.71876,-7.15999 c 0.53537,-5.33315 1.5086,-7.79956 3.81438,-9.66667 4.07477,-3.29954 10.91192,-3.1847 15.28704,0.25676 4.54935,3.57851 4.61166,9.26966 0.20554,18.77083 -5.43899,11.7284 -0.34312,9.97333 10.2618,-3.53427 9.56049,-12.1773 18.88974,-20.85214 34.12054,-31.72706 42.09766,-30.0581 65.69136,-55.4851 68.12496,-73.41847 0.54848,-4.04169 1.77639,-8.28737 2.72869,-9.43483 2.26968,-2.7348 7.30699,-2.66047 10.11672,0.14926 3.11386,3.11385 2.1576,16.44548 -1.75869,24.51873 -2.11561,4.36127 -2.95307,8.53045 -2.95307,14.70165 0,21.24319 -4.43741,43.1021 -12.10829,59.64603 -7.02368,15.14808 -12.04314,21.6692 -34.55905,44.89803 -25.29867,26.0997 -31.59687,36.27392 -34.09024,55.06996 l -0.91931,6.93004 h 106.17179 106.17177 l -0.012,-23.66667 z M 107.8066,228.32226 c -7.73124,-7.16508 -2.54496,-20.73033 7.92564,-20.73033 6.85218,0 11.81905,5.04291 11.81905,12 0,4.48961 -0.74443,6.25669 -3.71071,8.80817 -4.93595,4.24574 -11.40265,4.21434 -16.03398,-0.0779 z m 49.8053,-90.06366 c -8.78031,-8.78031 5.9512,-37.33334 19.26157,-37.33334 9.38836,0 11.40712,10.23355 4.67599,23.70374 -7.14743,14.30326 -17.41674,20.15042 -23.93756,13.6296 z"
         id="path4301" />
      <path
         style="fill:#ffffff;fill-rule:evenodd;stroke:#000000;stroke-width:0;stroke-linecap:round;stroke-linejoin:round"
         d="m 183.31744,342.91189 c 1.32518,-11.3164 4.176,-20.32613 8.73765,-27.61456 5.72109,-9.14092 9.19531,-13.24764 27.83229,-32.8993 14.77475,-15.57916 20.06942,-21.6809 24.43409,-28.15858 6.86244,-10.18468 13.2935,-25.84111 16.34875,-39.80106 2.14721,-9.81096 3.00952,-16.73512 3.60792,-28.97084 0.63414,-12.96664 0.99068,-15.20838 3.23045,-20.31149 2.29648,-5.23233 3.36445,-10.31956 3.4094,-16.24051 0.0476,-6.27373 -0.79074,-8.60954 -3.56211,-9.92464 -3.59419,-1.70556 -7.30266,-0.9495 -8.99534,1.83389 -0.56307,0.92591 -1.4426,3.79522 -1.9545,6.37626 -1.22942,6.19882 -2.24759,9.42701 -4.21278,13.35698 -4.09742,8.19396 -11.23415,17.04908 -22.92012,28.43884 -10.3645,10.10179 -18.11956,16.52431 -36.49519,30.22428 -21.62983,16.12613 -27.80441,21.70294 -39.07159,35.28905 -5.38484,6.49311 -10.24839,11.37173 -11.3366,11.37173 -0.96439,0 -0.28447,-3.12308 1.62912,-7.48302 4.74807,-10.81805 4.04023,-16.79844 -2.37928,-20.10194 -3.74557,-1.92748 -8.75985,-1.93897 -12.16927,-0.0279 -3.42248,1.91841 -4.7371,4.76646 -5.49702,11.90901 -0.33271,3.12723 -0.65035,5.73712 -0.70587,5.79976 -0.0555,0.0626 -3.7455,0.18447 -8.19997,0.27075 -9.03697,0.17506 -9.90447,-0.0601 -13.50561,-3.66126 -2.713395,-2.71339 -4.428145,-6.43655 -6.037548,-13.10906 -1.215965,-5.04132 -1.369155,-6.64597 -1.149772,-12.04364 0.296388,-7.29226 1.911077,-12.69765 7.54868,-25.27019 12.15695,-27.11148 44.03635,-83.51568 55.95808,-99.0066 9.12279,-11.854016 14.34849,-23.234035 14.33393,-31.21505 -0.004,-1.984564 -0.4482,-3.840406 -1.40824,-5.878458 -2.54674,-5.406443 -4.1222,-12.992272 -3.0837,-14.847979 0.42094,-0.752177 0.70842,-0.642525 2.08658,0.795881 0.87911,0.917536 4.64439,5.726677 8.36728,10.68698 8.7635,11.676323 8.92913,11.77461 19.75074,11.720702 10.71437,-0.05337 13.46073,-0.489488 15.75217,-2.501403 1.02833,-0.902883 3.24397,-3.868754 4.92365,-6.590826 1.67968,-2.722072 4.24001,-6.533141 5.68961,-8.469043 3.54767,-4.737776 9.20288,-10.420396 9.78792,-9.835355 0.25846,0.258459 0.83893,3.612787 1.28994,7.454062 1.07869,9.187221 2.14098,14.67329 3.13504,16.190408 1.16749,1.781816 4.52757,2.744619 17.91928,5.134611 21.35385,3.810983 34.46889,7.876031 49.10232,15.21943 53.36343,26.77902 81.819,89.66948 88.18312,194.89603 0.31523,5.21205 0.72226,20.86849 0.90451,34.79209 l 0.33138,25.31564 h -105.98701 -105.987 z m -62.00783,-112.6343 c 4.1556,-2.12447 5.96328,-4.61402 6.33616,-8.7262 0.41432,-4.56924 -0.60565,-7.83823 -3.32927,-10.67021 -5.58535,-5.80759 -15.16893,-4.29271 -18.85722,2.98077 -5.528177,10.90183 5.1016,21.91072 15.85033,16.41564 z m 48.35188,-90.98247 c 7.48671,-4.07478 15.37203,-17.81031 15.92723,-27.74384 0.19404,-3.47178 0.0445,-4.40925 -1.03012,-6.45806 -1.69233,-3.22652 -4.10936,-4.50207 -8.02599,-4.23561 -4.2294,0.28775 -6.75631,1.67472 -11.20677,6.15122 -3.18848,3.20714 -4.38353,4.93503 -6.57775,9.51055 -3.07931,6.42119 -3.87592,9.30958 -3.87592,14.05362 0,9.10131 6.76366,13.09023 14.78932,8.72212 z"
         id="path4438" />
    </g>
  </g>
</svg>
