<?xml version="1.0" encoding="UTF-8" standalone="no"?>
<!-- Created with Inkscape (http://www.inkscape.org/) -->

<svg
   version="1.1"
   id="svg6107"
   width="342.66696"
   height="346.45728"
   viewBox="0 0 342.66696 346.45727"
   xmlns="http://www.w3.org/2000/svg"
   xmlns:svg="http://www.w3.org/2000/svg">
  <defs
     id="defs6111" />
  <g
     id="g6113"
     transform="translate(-49.545915,-35.574828)">
    <g
       id="g6614">
      <path
         style="fill:#000000;stroke-width:1.33333"
         d="m 182.87926,380.23488 c -17.5702,-2.40229 -33.77916,-6.43019 -48.04089,-11.93808 -15.82067,-6.10995 -29.27147,-13.66865 -29.36795,-16.50339 -0.0415,-1.22021 -0.0465,-17.51857 -0.011,-36.21857 0.0355,-18.7 -0.38055,-34.64503 -0.92449,-35.4334 -0.54396,-0.78839 -4.889005,-4.03126 -9.655675,-7.2064 -4.76667,-3.17515 -14.07354,-11.23012 -20.68193,-17.89994 -17.45518,-17.61741 -24.65141,-32.83429 -24.65141,-52.12693 0,-23.41375 15.22882,-50.22627 34.26316,-60.32523 13.15866,-6.98152 21.546635,-8.7426 38.292595,-8.03966 20.27686,0.85116 35.79024,6.26449 56.11092,19.57965 l 4,2.62101 0.009,-14.25122 c 0.008,-13.05006 0.32705,-14.85613 3.77884,-21.42827 4.94054,-9.40671 14.34668,-19.33824 21.67524,-22.885944 l 5.86991,-2.841561 V 82.789221 70.241495 h -9.79335 c -10.80815,0 -14.20664,-1.954815 -14.20664,-8.171655 0,-5.363365 2.36957,-6.495012 13.6,-6.495012 h 10.39999 v -7.036659 c 0,-8.118722 2.69161,-12.963341 7.20229,-12.963341 5.06477,0 7.46437,3.998583 7.46437,12.438321 v 7.561679 h 10.59107 c 9.433,0 10.81801,0.324019 12.66667,2.963342 2.74316,3.916416 2.61816,5.827426 -0.59107,9.036658 -2.19259,2.192592 -4.44444,2.666667 -12.66667,2.666667 h -10 l 0.003,12.333334 0.003,12.333333 7.51485,3.926823 c 14.50276,7.578285 24.81656,25.255975 24.98248,42.819515 l 0.0889,9.41299 11.37038,-5.73639 c 15.25382,-7.6956 29.13941,-11.09371 45.25032,-11.07377 21.45738,0.0266 37.99672,6.34736 52.76997,20.16701 14.74015,13.78776 22.01773,28.8792 22.01773,45.65583 0,27.60203 -18.35593,53.83209 -54.33333,77.64071 l -11,7.27941 v 33.7473 c 0,37.60124 0.72895,34.62029 -9.95877,40.7256 -16.40755,9.37272 -42.96364,17.45301 -68.25672,20.76864 -18.2304,2.3898 -48.27806,2.38662 -65.7845,-0.007 z m 73.35126,-15.81277 c 13.78766,-2.5316 31.63184,-7.61544 40.64873,-11.5809 l 6.66667,-2.93188 -4.35038,-1.84468 c -31.84093,-13.50154 -88.49509,-17.31216 -133.64961,-8.98938 -14.67659,2.70514 -36.65148,9.71476 -35.15303,11.21321 3.92177,3.92177 33.98487,12.50008 53.81969,15.35711 16.22507,2.33706 56.33781,1.65561 72.01793,-1.22348 z M 138.21259,331.03068 c 47.99088,-15.37466 110.82769,-15.09987 158.50614,0.69313 6.68828,2.21543 12.91052,4.33823 13.82719,4.71732 1.24038,0.51298 1.66666,-1.70152 1.66666,-8.65826 v -9.34754 L 301.87925,314.502 c -21.38588,-8.14043 -38.31069,-11.7008 -65.98185,-13.88018 -22.93351,-1.80622 -50.65063,-0.16905 -72.36962,4.27468 -15.02876,3.07491 -18.41963,4.06246 -32.98185,9.6055 l -10.33334,3.93333 v 9.34754 c 0,6.96273 0.42521,9.16881 1.66667,8.64702 0.91667,-0.38528 8.26667,-2.81493 16.33333,-5.39921 z m -2.5839,-33.94862 c 47.66812,-15.79293 113.49968,-15.79293 161.1678,0 6.64552,2.20172 12.83276,4.31331 13.74943,4.6924 1.24038,0.51298 1.66666,-1.70152 1.66666,-8.65826 v -9.34754 l -10.7298,-4.13785 c -24.82004,-9.57161 -52.19926,-14.02243 -85.93686,-13.97003 -33.84057,0.0525 -59.60685,4.3303 -84.9491,14.10331 l -10.38423,4.00457 v 9.34754 c 0,6.95674 0.42628,9.17124 1.66667,8.65826 0.91667,-0.37909 7.10391,-2.49068 13.74943,-4.6924 z m 196.43533,-33.11297 c 17.12627,-11.34464 33.12196,-27.9088 39.58239,-40.98904 4.85467,-9.82913 5.23284,-11.41904 5.23284,-22 0,-9.53093 -0.57619,-12.63397 -3.50615,-18.88237 -5.00668,-10.67719 -16.59082,-21.75054 -28.83861,-27.56699 -8.90424,-4.2286 -11.44528,-4.80639 -23.49476,-5.34228 -9.83029,-0.4372 -15.86927,-0.003 -22.16893,1.59513 -27.51084,6.9777 -51.26415,26.69611 -64.90844,53.88266 l -5.74978,11.45654 v 16.99896 16.99896 l 4.33334,0.6287 c 2.38333,0.34577 10.63333,1.28193 18.33333,2.08034 19.46655,2.01848 40.31295,6.98054 55.65823,13.24827 7.15464,2.92231 13.24158,5.35457 13.52654,5.40507 0.28496,0.0505 5.68496,-3.33079 12,-7.51395 z m -205.74797,1.73453 c 18.22488,-7.39596 45.4206,-12.84248 74.22988,-14.86609 l 12.99999,-0.91315 v -16.89717 -16.89719 l -6.5334,-10.61093 c -16.40109,-26.63705 -44.11311,-48.08765 -70.72974,-54.74861 -13.08272,-3.27403 -31.81468,-2.11967 -41.552575,2.56069 -9.72319,4.67331 -20.15806,15.78117 -25.58235,27.23229 -3.87515,8.18076 -4.2686,10.18458 -4.2686,21.73943 0,12.06313 0.26637,13.26741 5.09908,23.05309 3.57098,7.23084 7.78127,13.00627 14.04926,19.27196 8.66981,8.66662 29.815095,24.28023 32.882365,24.28023 0.83025,0 5.06299,-1.44205 9.40609,-3.20455 z m 99.10252,-76.36761 c 2.49663,-4.12309 7.22721,-10.79653 10.5124,-14.82987 6.98577,-8.57664 9.91137,-17.7528 10.07425,-31.59797 0.0933,-7.93026 -0.4778,-10.40745 -3.79894,-16.4784 -4.60098,-8.41043 -12.5588,-15.67501 -18.05442,-16.48159 -4.94352,-0.72556 -12.61021,1.87286 -16.6084,5.62896 -1.69562,1.59296 -4.93873,6.3781 -7.20691,10.63363 -3.38376,6.34858 -4.12396,9.28095 -4.12396,16.33741 0,9.72491 4.15686,27.63779 7.66523,33.03143 4.12198,6.33691 15.61387,21.32983 16.31912,21.29075 0.37527,-0.0208 2.725,-3.41126 5.22163,-7.53435 z"
         id="path6117" />
      <path
         style="fill:#ffffff;fill-rule:evenodd;stroke:#000000;stroke-width:0;stroke-linecap:round;stroke-linejoin:round"
         d="M 108.88156,263.80121 C 94.209704,253.95263 81.01351,241.95086 75.05554,233.03689 67.660555,221.97293 65.010636,213.91009 65.013321,202.4817 c 0.0028,-12.04976 2.489265,-19.75459 9.777121,-30.29685 8.459811,-12.23755 19.13149,-19.55785 31.714748,-21.75492 9.08576,-1.5864 23.94043,-0.98837 31.66602,1.27484 18.06157,5.29111 37.01705,17.24971 51.61569,32.56322 7.07979,7.42647 11.37687,13.02308 17.94674,23.37417 l 5.20837,8.206 v 16.7791 16.77911 l -4.2962,0.42543 c -2.36291,0.23398 -7.15411,0.62246 -10.6471,0.86327 -24.40576,1.68258 -50.61747,6.93474 -70.3682,14.10002 -5.21085,1.89041 -10.0861,3.43022 -10.83389,3.4218 -0.7478,-0.008 -4.30958,-1.99548 -7.91506,-4.41568 z"
         id="path6254" />
      <path
         style="fill:#ffffff;fill-rule:evenodd;stroke:#000000;stroke-width:0;stroke-linecap:round;stroke-linejoin:round"
         d="m 120.77312,298.3056 c -0.25472,-1.54103 -0.46682,-5.37102 -0.47134,-8.51109 l -0.008,-5.70922 10.27352,-3.78422 c 28.953,-10.66475 48.62264,-13.86312 85.3636,-13.8805 37.1366,-0.0176 59.65877,3.71584 87.65763,14.53064 l 7.97948,3.08214 v 8.53706 c 0,5.52955 -0.27975,8.53706 -0.79409,8.53706 -0.43675,0 -5.73228,-1.64506 -11.76785,-3.65569 -39.6892,-13.22168 -90.03106,-16.15662 -135.37672,-7.89248 -8.54444,1.5572 -24.03675,5.66339 -33.58244,8.90092 -4.29288,1.45599 -8.03141,2.64725 -8.30784,2.64725 -0.27643,0 -0.711,-1.26084 -0.96572,-2.80187 z"
         id="path6293" />
      <path
         style="fill:#ffffff;fill-rule:evenodd;stroke:#000000;stroke-width:0;stroke-linecap:round;stroke-linejoin:round"
         d="m 120.67626,331.6093 c -0.27234,-2.59855 -0.3858,-6.56138 -0.25214,-8.80629 l 0.24302,-4.08164 10.25498,-3.86263 c 17.3264,-6.52613 29.54564,-9.53986 50.26538,-12.39735 16.08983,-2.21898 50.30406,-2.41229 66.87126,-0.37784 21.07999,2.58863 35.66845,6.11727 54.72983,13.23799 l 8.77919,3.27962 v 8.31342 c 0,4.57238 -0.19329,8.5067 -0.42952,8.74293 -0.23623,0.23624 -4.83169,-1.0619 -10.21212,-2.88475 -11.72575,-3.97259 -24.021,-7.13999 -35.68259,-9.19223 -36.9871,-6.50912 -79.18395,-5.25454 -113.94265,3.38769 -6.03063,1.49942 -24.31524,7.13459 -29.06959,8.959 -0.81796,0.31389 -1.17293,-0.67174 -1.55505,-4.31792 z"
         id="path6332" />
      <path
         style="fill:#ffffff;fill-rule:evenodd;stroke:#000000;stroke-width:0;stroke-linecap:round;stroke-linejoin:round"
         d="m 193.14214,366.08089 c -10.00803,-0.74407 -19.13309,-2.41828 -34.36959,-6.30593 -12.80329,-3.2668 -24.49166,-7.12912 -26.89678,-8.88779 -1.16263,-0.85013 -0.8945,-1.12779 2.49859,-2.58746 5.08649,-2.18815 20.14831,-6.48522 29.10428,-8.30333 43.88896,-8.90969 103.63449,-5.13726 135.74659,8.57125 l 2.97432,1.26973 -2.61383,1.34098 c -7.49065,3.84294 -31.15727,10.70334 -44.80248,12.9872 -13.60788,2.27761 -44.04694,3.22343 -61.6411,1.91535 z"
         id="path6371" />
      <path
         style="fill:#ffffff;fill-rule:evenodd;stroke:#000000;stroke-width:0;stroke-linecap:round;stroke-linejoin:round"
         d="m 310.06262,267.06165 c -20.9832,-8.23802 -36.44138,-11.89221 -64.06836,-15.14525 l -16.98821,-2.00034 -0.20152,-16.78237 -0.20152,-16.78237 4.60986,-8.98951 c 6.69839,-13.06229 12.61232,-21.38244 21.54229,-30.30725 11.9512,-11.9443 25.61888,-20.21926 41.49574,-25.12318 6.33645,-1.95715 7.5221,-2.07622 20.54703,-2.06333 11.08091,0.0109 14.70399,0.27822 18.26648,1.34745 19.03626,5.71347 37.2977,23.29934 40.66596,39.16154 1.04209,4.90752 1.06338,16.57049 0.0385,21.07064 -1.18451,5.20095 -6.15677,14.86972 -11.01982,21.42851 -9.49119,12.80078 -23.04786,24.61396 -41.61102,36.25954 l -2.99948,1.88172 -10.0759,-3.9558 z"
         id="path6410" />
      <path
         style="fill:#ffffff;fill-rule:evenodd;stroke:#000000;stroke-width:0;stroke-linecap:round;stroke-linejoin:round"
         d="m 214.77899,189.5931 c -2.69017,-3.39026 -6.39741,-8.35839 -8.23832,-11.04028 -5.74845,-8.37454 -9.51456,-22.45023 -9.60787,-35.90903 l -0.0548,-7.90994 3.64868,-7.35537 c 5.91149,-11.91698 12.36785,-16.9226 21.82715,-16.9226 6.60068,0 15.2688,7.8732 20.68659,18.78949 2.29787,4.62996 2.40153,5.21998 2.36285,13.44897 -0.07,14.88787 -2.38689,21.53712 -12.00208,34.44437 -3.23919,4.34821 -7.39623,10.31619 -9.23788,13.26217 -1.84165,2.94599 -3.60599,5.35633 -3.92076,5.35633 -0.31477,0 -2.77335,-2.77385 -5.46352,-6.16411 z"
         id="path6488" />
    </g>
  </g>
</svg>
