<?xml version="1.0" encoding="UTF-8" standalone="no"?>
<!-- Created with Inkscape (http://www.inkscape.org/) -->

<svg
   version="1.1"
   id="svg4662"
   width="339.94849"
   height="343.37408"
   viewBox="0 0 339.94848 343.37408"
   xmlns="http://www.w3.org/2000/svg"
   xmlns:svg="http://www.w3.org/2000/svg">
  <defs
     id="defs4666" />
  <g
     id="g4668"
     transform="translate(-52.941112,-35.090307)">
    <g
       id="g5090">
      <path
         style="fill:#000000;stroke-width:1.33333"
         d="m 66.711721,377.70404 c -1.56449,-0.3066 -5.31449,-2.67166 -8.33333,-5.25567 -6.75293,-5.78025 -7.14502,-10.03963 -1.56998,-17.05491 4.35224,-5.47657 12.12718,-12.0137 17.780657,-14.94988 9.21434,-4.78554 28.733942,-7.26689 67.520442,-8.58325 20.96238,-0.71144 40.51342,-1.78527 43.44676,-2.38628 l 5.33333,-1.09277 -4,-1.01754 c -2.2,-0.55964 -7.34125,-1.84313 -11.42501,-2.8522 -19.62706,-4.84972 -32.31275,-12.32898 -34.54553,-20.36744 -1.88601,-6.79001 -1.69239,-13.92914 0.68711,-25.33493 2.30418,-11.04475 4.931,-16.8046 11.63265,-25.50699 l 4.61218,-5.9891 -8.85604,-8.19935 C 135.00935,226.1652 128.918,211.44838 128.92513,190.62464 c 0.009,-26.51751 11.01184,-50.12481 33.05253,-70.91688 10.3935,-9.8047 21.13546,-17.48639 32.24527,-23.058944 4.03334,-2.023072 7.58959,-3.912392 7.9028,-4.198488 0.3132,-0.286094 -0.9683,-2.163914 -2.84778,-4.172932 -11.76299,-12.573668 -11.37074,-31.407214 0.90989,-43.687846 20.15371,-20.153695 53.89732,-6.150818 54.00581,22.411246 0.0333,8.761431 -1.93106,14.350783 -7.2679,20.680155 -2.03572,2.414305 -3.47664,4.590553 -3.20206,4.836107 0.27459,0.245553 3.19924,1.804665 6.49924,3.464693 22.92324,11.531279 45.97554,33.451189 55.94138,53.193419 12.55285,24.86705 13.98234,50.48568 3.99198,71.54177 -4.40037,9.2744 -12.55574,19.09343 -19.34178,23.28744 l -4.6646,2.88288 4.65645,5.15415 c 5.45176,6.03445 10.72093,15.97521 11.9704,22.58323 0.48531,2.56666 1.53109,7.19482 2.32397,10.2848 2.135,8.3205 0.35366,19.50605 -3.91416,24.57806 -4.78634,5.68824 -19.39436,12.41866 -34.81465,16.04031 l -12.81565,3.00992 6,1.00651 c 3.3,0.55357 22.5,1.58293 42.66666,2.28746 43.65382,1.52507 52.17485,2.70186 64.88621,8.96099 11.0199,5.42627 25.78046,18.06316 25.78046,22.07132 0,4.29451 -5.28666,10.53389 -11.20142,13.22005 -7.23016,3.28354 -15.43119,3.1747 -26.80282,-0.35573 -8.77648,-2.72473 -12.17237,-2.90987 -57.32909,-3.12528 -48.1031,-0.22948 -53.42412,-0.55409 -67.66802,-4.12809 -6.69833,-1.68072 -8.55306,-1.67774 -14.66666,0.0236 -12.23558,3.40493 -20.61735,3.9089 -68.33199,4.10861 -43.50956,0.18211 -47.343192,0.39015 -56.666668,3.07503 -9.358151,2.69486 -16.807941,3.33552 -23.511211,2.02186 z m 21.63126,-16.65966 c 9.855811,-2.72274 13.690629,-2.92833 58.546619,-3.13861 47.60236,-0.22315 57.85651,-0.99665 69.99724,-5.28016 4.59541,-1.62136 6.07677,-1.62136 10.67219,0 12.22417,4.31293 22.34481,5.0704 70.6639,5.28871 45.52459,0.20569 49.31231,0.40585 58.66667,3.10038 5.5,1.58428 11.74299,2.89463 13.87332,2.91188 3.71447,0.0301 3.77976,-0.072 1.59223,-2.48918 -3.59055,-3.96751 -16.75701,-10.37378 -24.79888,-12.06614 -4.03333,-0.84877 -24.43334,-2.1191 -45.33334,-2.82293 -20.9,-0.70383 -39.8,-1.61068 -42,-2.01521 -12.0184,-2.20994 -23.48876,-5.32823 -29.86241,-8.11828 l -7.19573,-3.14992 -8.78696,3.51533 c -16.62299,6.65024 -29.76795,8.47256 -70.82156,9.81813 -47.76961,1.56572 -57.825611,3.25552 -69.000005,11.59475 -8.660134,6.46289 -3.299644,7.57149 13.786716,2.85125 z m 155.632549,-47.1206 c 21.3651,-1.42802 45.06011,-9.36457 46.74695,-15.65769 0.43856,-1.63613 0.80557,-3.72479 0.81559,-4.64145 0.0143,-1.31203 -14.61122,-1.66667 -68.73295,-1.66667 h -68.75114 l 0.41781,4.33333 c 0.37236,3.86191 1.33949,4.78704 8.88994,8.50379 13.66408,6.72621 43.83902,11.68965 62.8612,10.33996 3.3,-0.23415 11.28867,-0.77921 17.7526,-1.21127 z m 43.58074,-38.98361 c 0,-3.42569 -8.56482,-15.59364 -13.7714,-19.56489 l -4.48031,-3.41731 h -46.87031 -46.8703 l -5.46452,4.93687 c -4.80375,4.3399 -13.16264,16.6252 -13.19732,19.39646 -0.007,0.55 29.38749,1 65.32082,1 61.52174,0 65.33334,-0.13717 65.33334,-2.35113 z m -9.61355,-40.20551 c 12.73999,-6.58425 22.51196,-22.40497 23.87404,-38.65181 2.88769,-34.44445 -21.07544,-68.32156 -63.19423,-89.33876 -15.28814,-7.628755 -15.67033,-7.658748 -27.70536,-2.17422 -22.63756,10.31627 -45.45437,29.00728 -55.16706,45.19158 -9.57662,15.95759 -11.47076,22.57807 -11.50033,40.19652 -0.0231,13.76847 0.38765,16.89811 2.94507,22.43933 4.38375,9.49842 10.49206,16.53182 18.19366,20.94908 l 6.83442,3.9199 50.38646,0.012 c 47.06882,0.012 50.71217,-0.15583 55.33333,-2.54414 z M 217.15627,195.6913 c -0.97095,-0.97094 -1.6,-5.68889 -1.6,-12 v -10.4 h -10 c -8.22223,0 -10.47408,-0.47408 -12.66667,-2.66666 -3.20923,-3.20923 -3.33423,-5.12024 -0.59107,-9.03666 1.84866,-2.63933 3.23367,-2.96334 12.66667,-2.96334 h 10.59107 V 147.9887 c 0,-9.7118 0.27398,-10.81544 3.15336,-12.70208 2.32738,-1.52497 4.02598,-1.73439 6.48482,-0.79955 4.31576,1.64086 5.02848,3.7546 5.02848,14.91329 v 9.22428 h 9.42099 c 11.44913,0 14.57901,1.42085 14.57901,6.61834 0,6.37771 -2.92578,8.04832 -14.09524,8.04832 h -9.90476 v 9.90476 c 0,7.22655 -0.56654,10.47131 -2.09524,12 -2.47954,2.47955 -8.70606,2.7606 -10.97142,0.49524 z M 234.3798,78.7815 c 4.43569,-4.435696 5.17576,-6.009841 5.17148,-11 -0.0133,-15.568668 -16.20131,-23.542677 -27.86676,-13.72684 -6.93273,5.833507 -8.16463,15.078162 -3.05964,22.960816 2.84401,4.391468 8.06199,6.827759 14.75492,6.889111 5.02124,0.04603 6.53667,-0.659759 11,-5.123087 z"
         id="path4672" />
      <path
         style="fill:#ffffff;fill-rule:evenodd;stroke:#000000;stroke-width:0;stroke-linecap:round;stroke-linejoin:round"
         d="m 18.513667,327.4469 c 0,-1.92488 8.700127,-7.71159 14.810934,-9.85119 7.063039,-2.47301 16.569086,-3.64571 38.283088,-4.72273 10.255541,-0.50868 27.394146,-1.36578 38.085791,-1.90467 23.94078,-1.20669 36.97813,-3.35355 50.43422,-8.30499 l 10.30997,-3.79376 6.81053,2.83523 c 3.7458,1.55938 11.89595,4.07704 18.11145,5.59481 10.61692,2.59256 13.35286,2.84615 45.20319,4.18991 44.27049,1.86775 53.21156,2.68714 60.90013,5.58111 7.2814,2.74072 15.03922,7.04835 17.4084,9.66626 1.65427,1.82796 1.65255,1.88068 -0.0614,1.87951 -0.96988,-6.6e-4 -6.13727,-1.08275 -11.48309,-2.40465 -12.31153,-3.04437 -28.14536,-3.97177 -68.96341,-4.03926 -35.27302,-0.0583 -48.39784,-0.98692 -60.53249,-4.28276 l -8.69421,-2.36141 -8.43093,2.38052 c -11.45014,3.233 -24.9977,4.18928 -60.26922,4.25419 -37.937522,0.0698 -57.116394,1.087 -66.319039,3.51732 -11.012191,2.90821 -15.603934,3.42805 -15.603934,1.76656 z"
         id="path4809"
         transform="translate(52.941112,35.090307)" />
      <path
         style="fill:#ffffff;fill-rule:evenodd;stroke:#000000;stroke-width:0;stroke-linecap:round;stroke-linejoin:round"
         d="m 144.86945,278.10349 c -18.45578,-2.51702 -38.48214,-9.10799 -41.71999,-13.73066 -0.72836,-1.03989 -1.32429,-3.04768 -1.32429,-4.46178 v -2.57108 l 61.78936,0.007 c 64.39542,0.007 74.28609,0.32613 74.28609,2.39793 0,4.73604 -6.4439,9.32127 -18.51366,13.1736 -18.72931,5.97786 -51.82195,8.28066 -74.51751,5.18541 z"
         id="path4848"
         transform="translate(52.941112,35.090307)" />
      <path
         style="fill:#ffffff;fill-rule:evenodd;stroke:#000000;stroke-width:0;stroke-linecap:round;stroke-linejoin:round"
         d="m 107.16065,240.81522 -2.53283,-0.60039 2.78659,-4.86617 c 1.53262,-2.67639 5.53462,-7.77922 8.89332,-11.33962 l 6.10673,-6.47345 h 47.32204 47.32205 l 6.48688,6.74743 c 6.23765,6.4882 11.5301,14.89933 10.20769,16.22282 -0.81117,0.81182 -123.2109,1.11096 -126.59247,0.30938 z"
         id="path4887"
         transform="translate(52.941112,35.090307)" />
      <path
         style="fill:#ffffff;fill-rule:evenodd;stroke:#000000;stroke-width:0;stroke-linecap:round;stroke-linejoin:round"
         d="m 114.78474,198.94278 c -10.39401,-5.92758 -18.969832,-16.69037 -21.723848,-27.26376 -1.615948,-6.20404 -1.845648,-20.8232 -0.476001,-30.2949 2.759283,-19.08162 18.738829,-41.10098 41.640719,-57.379703 11.32518,-8.049968 30.1164,-17.556994 34.95316,-17.683819 5.88141,-0.154216 25.96203,10.156724 39.56283,20.314611 25.18545,18.810011 39.42936,43.434381 39.5755,68.416751 0.088,15.04933 -4.44448,26.73352 -14.27058,36.7876 -9.71754,9.94302 -6.52132,9.4574 -64.18362,9.75164 l -49.98691,0.25507 z m 58.11277,-37.01534 c 3.75209,-1.30798 4.83369,-4.61087 4.83369,-14.76058 v -8.07168 l 9.87414,-0.43915 c 9.33626,-0.41522 9.99178,-0.57592 12.03388,-2.95001 2.61452,-3.03955 2.77587,-6.99574 0.40475,-9.92395 -1.61081,-1.98927 -2.59304,-2.19603 -11.95463,-2.51645 l -10.19963,-0.34911 -0.31067,-10.05943 c -0.27603,-8.9377 -0.54064,-10.28913 -2.37289,-12.11933 -2.77423,-2.771118 -7.91227,-2.771118 -10.6865,0 -1.83489,1.83282 -2.09676,3.1798 -2.37554,12.21902 l -0.31332,10.15912 h -9.70899 c -9.49673,0 -9.76813,0.0592 -12.41482,2.70584 -3.07774,3.07774 -3.40846,6.04713 -1.01935,9.15228 2.05447,2.67021 6.8979,3.82798 16.13291,3.85641 l 7.17405,0.0221 0.10952,8.09973 c 0.14471,10.70224 0.79002,13.35169 3.59798,14.77233 2.83762,1.43564 3.59765,1.45707 7.19542,0.20288 z"
         id="path4926"
         transform="translate(52.941112,35.090307)" />
      <path
         style="fill:#ffffff;fill-rule:evenodd;stroke:#000000;stroke-width:0;stroke-linecap:round;stroke-linejoin:round"
         d="m 162.38467,46.380132 c -11.89884,-5.404182 -12.47788,-21.687858 -1.00378,-28.227994 5.30083,-3.021432 8.38982,-3.581811 12.67196,-2.29885 9.1241,2.733645 14.83796,14.926203 10.70362,22.839962 -1.48674,2.845851 -5.59527,6.867822 -8.58436,8.403496 -3.02773,1.555528 -9.52864,1.217638 -13.78744,-0.716614 z"
         id="path4965"
         transform="translate(52.941112,35.090307)" />
    </g>
  </g>
</svg>
