<?xml version="1.0" encoding="UTF-8" standalone="no"?>
<!-- Created with Inkscape (http://www.inkscape.org/) -->

<svg
   version="1.1"
   id="svg5203"
   width="339.76401"
   height="343.6778"
   viewBox="0 0 339.76401 343.6778"
   xmlns="http://www.w3.org/2000/svg"
   xmlns:svg="http://www.w3.org/2000/svg">
  <defs
     id="defs5207" />
  <g
     id="g5209"
     transform="translate(-54.80624,-32.968631)">
    <g
       id="g6096">
      <path
         style="fill:#000000;stroke-width:1.33333"
         d="m 69.024305,375.32482 c -6.972438,-1.84728 -14.218065,-9.24691 -14.218065,-14.52026 0,-3.17138 1.68129,-5.73624 7.666666,-11.69572 14.652333,-14.58894 24.319777,-17.04177 74.333334,-18.85988 31.35185,-1.1397 54.81203,-2.99421 56.26556,-4.44773 0.24593,-0.24593 -3.72896,-1.13683 -8.83309,-1.97976 -11.3378,-1.87239 -25.60383,-7.08239 -32.7658,-11.96617 -7.20823,-4.91531 -9.99536,-10.88459 -9.99794,-21.41278 l 2.38242,-13.17039 0.37802,8.17039 2.76344,3.51315 h 77.63656 c 81.65569,0 80.8122,0.0619 80.85697,-5.93333 0.0168,-2.25326 0.48506,-6.81211 1.31292,-0.73334 0.43321,3.18094 1.66403,10.8392 -0.17476,18.14168 -2.45424,9.74668 -15.54505,17.44487 -38.42663,22.59719 -10.27296,2.31319 -11.92958,3.00611 -8.96561,3.75001 5.55969,1.3954 40.81219,3.44971 60.23367,3.51007 35.67603,0.11093 51.88883,5.28595 69.7295,22.25737 7.00743,6.666 7.11599,9.87859 0.55549,16.43908 -8.2845,8.2845 -16.69136,9.37867 -32.95166,4.28875 -5.33935,-1.67137 -17.28527,-2.26947 -60,-3.00401 -46.32433,-0.79663 -54.55991,-1.24984 -62.66667,-3.44864 -9.14972,-2.4817 -9.51694,-2.48211 -18.66666,-0.0212 -8.03814,2.16197 -16.7345,2.64849 -62.66667,3.50598 -48.08507,0.89768 -54.382988,1.27287 -64.000001,3.81262 -11.78115,3.11126 -12.441892,3.15157 -19.781934,1.20689 z M 144.35121,272.59426 c 1.76036,-7.94787 5.65979,-15.56287 11.40826,-22.27866 l 4.94052,-5.77189 -3.2802,-2.05817 c -6.04172,-3.7909 -15.80932,-14.68038 -19.23924,-21.449 -5.02356,-9.91354 -7.37431,-20.56515 -7.37431,-33.4142 0,-36.75463 24.4578,-71.44806 66.21284,-93.92304 l 6.87949,-3.702947 -4.34833,-5.696633 c -16.19365,-21.214846 -1.57281,-51.379952 24.87984,-51.33103 27.20349,0.05031 41.28816,30.362352 24.39765,52.50694 l -3.44834,4.521014 9.72716,5.338574 c 28.72605,15.765772 50.31842,39.935072 59.02941,66.074202 10.34047,31.02877 2.33153,62.23801 -20.45923,79.72557 l -4.46282,3.42439 5.4734,7.19814 c 5.56174,7.31435 10.44828,19.8539 11.23997,24.91662 0.87802,5.61486 -0.60343,1.89328 -2.89269,-0.17848 -2.2088,-1.99894 -9.58587,-2.20666 -78.36999,-2.20666 -64.8562,0 -76.34232,0.28763 -78.74697,1.97192 -2.7773,1.94528 -2.79844,1.89578 -1.56642,-3.66666 z m 134.45503,-24.97192 c 3.20304,-3.20304 3.42505,-7.05115 0.57143,-9.90476 -1.83444,-1.83444 -8.6886,-2.09524 -55.06667,-2.09524 -39.42223,0 -53.38068,0.40925 -54.57143,1.6 -2.65206,2.65206 -1.90132,8.7044 1.36335,10.99106 2.55675,1.79082 9.96579,2.0756 54,2.0756 49.25888,0 51.12955,-0.0929 53.70332,-2.66666 z m -49.10499,-54.20666 c 1.9406,-1.75622 2.43832,-4.20568 2.43832,-12 v -9.79334 l 8.33334,-0.0196 c 10.70337,-0.0252 14.87221,-2.06779 15.40825,-7.54934 0.59865,-6.12177 -3.42909,-8.43106 -14.70493,-8.43106 h -9.03666 v -9.56168 c 0,-10.52148 -2.01962,-14.43832 -7.44474,-14.43832 -5.52722,0 -7.22192,3.3076 -7.22192,14.09524 v 9.90476 h -10 c -8.22223,0 -10.47408,0.47408 -12.66667,2.66666 -6.74159,6.74159 -1.21176,12.419 12.7846,13.12578 l 9.88207,0.49902 v 9.41595 c 0,6.89053 0.59184,10.06992 2.20665,11.85427 2.7442,3.0323 6.82284,3.1266 10.02169,0.23166 z"
         id="path5270" />
      <path
         style="fill:#ffffff;fill-rule:evenodd;stroke:#000000;stroke-width:0;stroke-linecap:round;stroke-linejoin:round"
         d="m 123.30758,216.44528 c -5.2397,-0.43524 -7.07139,-1.13892 -8.35005,-3.20783 -2.49666,-4.03967 -1.41569,-8.64183 2.21242,-9.41926 3.0426,-0.65197 91.32954,-1.00088 98.93443,-0.39099 6.95855,0.55805 8.23102,1.03888 9.5623,3.6133 1.59203,3.07863 -0.80764,7.68559 -4.67682,8.9787 -1.37996,0.46119 -12.98387,0.63112 -47.59823,0.69701 -25.17537,0.0479 -47.7132,-0.074 -50.08405,-0.27093 z"
         id="path5481"
         transform="translate(54.80624,32.968631)" />
      <path
         style="fill:#ffffff;fill-rule:evenodd;stroke:#000000;stroke-width:0;stroke-linecap:round;stroke-linejoin:round"
         d="m 166.82629,161.22386 c -0.87447,-0.5332 -1.95805,-1.53123 -2.40794,-2.21785 -0.91935,-1.40311 -1.67788,-8.31755 -1.70602,-15.55138 l -0.0178,-4.56262 -3.1096,-0.27128 c -1.71029,-0.14921 -5.02166,-0.39879 -7.35861,-0.55462 -12.46089,-0.83092 -17.88456,-5.70809 -12.79452,-11.50533 2.78184,-3.16834 3.6104,-3.38244 13.8574,-3.5808 l 9.2523,-0.1791 0.3264,-8.53714 c 0.36886,-9.64794 0.81572,-11.84169 2.82049,-13.84645 1.13062,-1.130624 1.8507,-1.407438 3.66121,-1.407438 6.08841,0 7.76196,3.710538 7.76974,17.226738 l 0.004,6.5297 8.61281,0.2133 c 7.89907,0.19564 8.81646,0.31421 11.0702,1.4309 5.82154,2.88446 5.31059,10.09526 -0.89914,12.68915 -1.64338,0.68646 -3.96854,0.93369 -10.40362,1.10618 l -8.28725,0.22214 -0.17965,9.02371 c -0.2059,10.34203 -0.63351,11.85822 -3.85502,13.66881 -2.37063,1.33237 -4.28843,1.36356 -6.35519,0.10338 z"
         id="path5520"
         transform="translate(54.80624,32.968631)" />
      <path
         style="fill:#ffffff;fill-rule:evenodd;stroke:#000000;stroke-width:0;stroke-linecap:round;stroke-linejoin:round"
         d="m 90.99687,254.13477 -1.398649,-1.81291 -0.05826,-3.91939 -0.05826,-3.91939 1.832958,-0.92653 c 3.294825,-1.66548 4.266076,-1.69019 72.485181,-1.84407 62.46275,-0.14089 77.08375,0.0305 81.64767,0.95696 1.74903,0.35505 2.20591,0.6243 3.67556,2.16609 l 1.67827,1.76064 -0.22228,2.85864 c -0.15887,2.04314 -0.39227,3.04648 -0.81815,3.51707 -0.78748,0.87016 -3.26105,1.55723 -7.14385,1.98433 -5.5375,0.6091 -40.18314,0.9615 -96.02317,0.97671 l -54.198379,0.0148 z"
         id="path5973"
         transform="translate(54.80624,32.968631)" />
    </g>
  </g>
</svg>
