<?xml version="1.0" encoding="UTF-8" standalone="no"?>
<!-- Created with Inkscape (http://www.inkscape.org/) -->

<svg
   version="1.1"
   id="svg6167"
   width="330.53928"
   height="330.66669"
   viewBox="0 0 330.53927 330.66668"
   xmlns="http://www.w3.org/2000/svg"
   xmlns:svg="http://www.w3.org/2000/svg">
  <defs
     id="defs6171" />
  <g
     id="g6173"
     transform="translate(-11.630127,-16.684736)">
    <g
       id="g6726">
      <path
         style="fill:#000000;stroke-width:1.33333"
         d="m 102.89881,345.56174 c -2.17169,-1.58797 -2.36584,-3.20331 -1.72275,-14.33333 1.53037,-26.48622 8.1188,-38.51075 38.32726,-69.95099 12.1,-12.59339 24.01277,-26.26131 26.47281,-30.37316 8.48816,-14.18752 14.7804,-34.00156 14.83737,-46.72236 l 0.0232,-5.16951 -9.67314,9.16951 c -12.41495,11.76856 -26.55182,23.24538 -41.66019,33.82126 -14.71686,10.30182 -21.32481,16.43424 -31.570132,29.29819 -9.405589,11.8096 -14.892217,16.00815 -22.200263,16.98836 -7.890535,1.05834 -12.025795,-0.44044 -14.966415,-5.42443 -2.51934,-4.26994 -2.80984,-4.38225 -9.83013,-3.80008 -11.79902,0.97847 -20.3045,-1.78742 -27.39571,-8.9088 -7.22935,-7.26009 -10.44629,-15.85542 -11.62547,-31.06202 -0.66358,-8.55751 -0.27812,-11.87135 2.32636,-20 6.4803,-20.22518 48.78613,-98.45053 62.444671,-115.46295 3.950602,-4.92068 8.605583,-12.011498 10.344401,-15.757371 3.074016,-6.622242 3.099051,-6.954254 0.904822,-12.000001 -1.551166,-3.566982 -2.284096,-9.031412 -2.344403,-17.478897 -0.0788,-11.037345 0.218633,-12.59663 2.919,-15.303031 7.367705,-7.384174 19.626559,-1.982157 31.576969,13.914783 6.3695,8.472983 7.05258,8.979569 12.12882,8.994905 4.67375,0.01412 5.70774,-0.552036 7.88442,-4.317081 7.24427,-12.530612 20.88227,-25.000001 27.34293,-25.000001 7.91521,0 13.86314,8.850282 15.54074,23.124019 l 0.83799,7.130046 10.69484,1.637193 c 23.17227,3.547271 48.08989,13.120769 66.61344,25.593276 32.74068,22.045349 57.22523,63.53207 69.55178,117.8488 7.35546,32.41176 10.10778,59.65175 11.08248,109.68472 0.73264,37.60698 0.62308,40.53154 -1.61087,43 -2.35657,2.604 -4.35433,2.64862 -118.60214,2.64862 -95.11918,0 -116.64929,-0.32475 -118.65269,-1.78967 z m 227.61036,-23.877 c 0.86947,-27.40133 -0.81672,-68.95968 -3.6949,-91.06611 C 314.38703,135.16887 276.10291,75.671987 217.4609,60.673891 c -13.62788,-3.485427 -15.07401,-3.398176 -16.75426,1.010846 -3.79224,9.950888 -3.77526,9.978916 8.58082,14.15817 23.28127,7.874529 41.41832,20.93945 56.07434,40.392823 16.07376,21.33518 29.07928,51.93337 35.32769,83.11567 6.02506,30.06759 7.33627,47.34926 7.41034,97.66674 l 0.0701,47.66675 10.80469,-8e-5 10.8047,-7e-5 0.7298,-23 z M 53.97661,217.4514 c 3.63047,-1.8774 6.86004,-7.00682 6.86004,-10.89561 0,-3.68845 -3.76465,-9.33577 -7.29608,-10.9448 -5.36042,-2.44237 -8.27492,-1.93865 -12.94955,2.23815 -3.38603,3.0254 -4.28771,4.88348 -4.28771,8.8356 0,3.95212 0.90168,5.8102 4.28771,8.8356 4.78523,4.27561 7.96473,4.73429 13.38559,1.93106 z m 47.59212,-90.88707 c 8.1663,-3.87516 16.51903,-18.04648 16.57197,-28.116152 0.0237,-4.499608 -0.67124,-6.120927 -3.61634,-8.437542 -6.59239,-5.18557 -15.31798,-0.760901 -22.364367,11.340764 -7.142906,12.26744 -6.891552,21.77993 0.676653,25.60799 4.132778,2.0904 3.427078,2.12233 8.732084,-0.39506 z"
         id="path6234" />
      <path
         style="fill:#ffffff;fill-rule:evenodd;stroke:#000000;stroke-width:0;stroke-linecap:round;stroke-linejoin:round"
         d="m 32.326003,200.62572 c -8.421944,-5.41277 -9.571978,-12.79665 -2.944538,-18.90561 3.616213,-3.33331 5.792061,-4.12251 9.465773,-3.43332 5.35143,1.00394 10.308141,7.66982 9.604447,12.91626 -0.406349,3.02955 -3.156998,7.16062 -6.014552,9.03296 -2.820604,1.84813 -7.557828,2.03072 -10.11113,0.38971 z"
         id="path6525"
         transform="translate(11.630127,16.684736)" />
      <path
         style="fill:#ffffff;fill-rule:evenodd;stroke:#000000;stroke-width:0;stroke-linecap:round;stroke-linejoin:round"
         d="m 81.115453,109.60882 c -2.00651,-1.0586 -3.204205,-2.41376 -4.277285,-4.83963 -1.32163,-2.98777 -1.40049,-3.85288 -0.696353,-7.639182 1.647573,-8.859373 9.304606,-20.657365 15.437462,-23.786115 5.127847,-2.616032 11.094583,-1.259317 13.496313,3.06879 2.52113,4.543268 0.0353,14.973359 -5.563945,23.344856 -3.590735,5.368591 -6.259826,7.917271 -10.669865,10.188491 -2.971893,1.53056 -4.295592,1.47279 -7.726327,-0.33721 z"
         id="path6564"
         transform="translate(11.630127,16.684736)" />
      <path
         style="fill:#ffffff;fill-rule:evenodd;stroke:#000000;stroke-width:0;stroke-linecap:round;stroke-linejoin:round"
         d="m 297.08386,300.9224 c -0.0297,-32.01931 -1.07008,-71.74095 -2.15465,-82.26786 C 288.15872,152.9397 265.35276,101.95993 231.28124,76.377787 221.97901,69.393329 212.61109,64.419302 199.00485,59.240185 193.3092,57.072178 188.36031,54.869511 188.00731,54.34537 c -0.87417,-1.297997 -0.26548,-4.917906 1.49686,-8.901983 1.36928,-3.09548 1.64413,-3.310288 4.2294,-3.305529 5.46979,0.01007 20.91493,4.491834 30.76357,8.926764 7.06687,3.182272 16.54439,9.16155 23.90053,15.078613 33.0687,26.599479 55.98099,75.866035 65.35446,140.526675 3.62814,25.02784 5.52396,64.46052 4.74096,98.61105 l -0.51216,22.33763 h -10.43614 -10.43613 z"
         id="path6603"
         transform="translate(11.630127,16.684736)" />
    </g>
  </g>
</svg>
