<?xml version="1.0" encoding="UTF-8" standalone="no"?>
<!-- Created with Inkscape (http://www.inkscape.org/) -->

<svg
   version="1.1"
   id="svg71"
   width="266.32062"
   height="339.33157"
   viewBox="0 0 266.32062 339.33157"
   xmlns="http://www.w3.org/2000/svg"
   xmlns:svg="http://www.w3.org/2000/svg">
  <defs
     id="defs75" />
  <g
     id="g77"
     transform="translate(-69.87911,-49.148157)">
    <path
       style="fill:#ffffff;fill-opacity:1;stroke:#000000;stroke-width:24;stroke-miterlimit:4;stroke-dasharray:none;stroke-opacity:1"
       d="m 83.235034,360.1464 c 1.9219,-40.56232 14.00361,-73.29369 37.494996,-101.5802 4.92111,-5.92562 21.36118,-20.0278 27.07724,-23.22666 2.03644,-1.13966 1.92781,-1.67691 -1.15761,-5.7254 -21.21633,-27.83874 -18.56366,-67.34427 6.21912,-92.61981 l 8.49376,-8.66264 -1.91473,-5.42696 c -2.85152,-8.08204 -2.45747,-23.541079 0.82358,-32.310496 3.73764,-9.989731 12.82704,-19.752755 23.01524,-24.720932 24.22704,-11.814077 51.56538,-1.737924 63.14388,23.27309 3.11415,6.726924 3.68932,9.697435 3.61442,18.666668 -0.0544,6.51709 -0.89866,12.55372 -2.1701,15.51744 l -2.08101,4.85078 8.57539,8.78882 c 14.7446,15.11161 21.33192,32.7705 20.18528,54.11141 -0.73039,13.59356 -4.07378,23.64616 -11.62578,34.95537 -2.99856,4.49039 -5.28928,8.2645 -5.09046,8.38688 40.44193,24.8971 66.36147,75.7322 66.36147,130.15246 v 11.90352 H 203.33042 82.461144 Z"
       id="path241" />
  </g>
</svg>
