<?xml version="1.0" encoding="UTF-8" standalone="no"?>
<!-- Created with Inkscape (http://www.inkscape.org/) -->

<svg
   version="1.1"
   id="svg6797"
   width="281.33334"
   height="310.90237"
   viewBox="0 0 281.33334 310.90237"
   xmlns="http://www.w3.org/2000/svg"
   xmlns:svg="http://www.w3.org/2000/svg">
  <defs
     id="defs6801" />
  <g
     id="g6803"
     transform="translate(-89.011496,-33.592776)">
    <g
       id="g7319">
      <path
         style="fill:#000000;stroke-width:1.33333"
         d="m 91.599669,342.36797 c -2.339565,-1.70978 -2.588173,-3.61094 -2.588173,-19.79222 0,-13.21104 0.479412,-18.47915 1.829926,-20.10852 1.477264,-1.7823 4.368055,-2.20778 14.999998,-2.20778 h 13.17008 v -17.79334 c 0,-15.54459 0.30816,-18.07225 2.43832,-20.00001 1.34108,-1.21366 3.12642,-2.20665 3.96742,-2.20665 0.84101,0 4.24376,-4.63745 7.56168,-10.30545 l 6.03258,-10.30546 -0.0204,-60.02788 c -0.0112,-33.01533 -0.46123,-60.66545 -1,-61.4447 -0.53877,-0.77926 -6.67958,-6.09178 -13.64625,-11.80561 -6.96667,-5.71383 -13.41667,-11.340944 -14.33333,-12.504684 -1.20459,-1.52927 -1.66667,-9.3563 -1.66667,-28.231054 0,-21.478296 0.36853,-26.641307 2.07561,-29.078495 2.00942,-2.868857 2.81412,-2.963341 25.23809,-2.963341 27.37861,0 27.35297,-0.01137 27.35297,12.135075 v 7.944597 l 17,-0.373169 17,-0.373169 0.66741,-8.38243 c 0.43091,-5.411968 1.3759,-8.830287 2.66667,-9.646249 2.60776,-1.648486 56.05741,-1.648486 58.66517,0 1.29078,0.815962 2.23576,4.234281 2.66667,9.646249 l 0.66741,8.38243 17,0.373169 17,0.373169 v -7.944597 c 0,-12.146447 -0.0256,-12.135075 27.35296,-12.135075 22.42398,0 23.22868,0.09448 25.23811,2.963341 1.70912,2.440111 2.0756,7.630142 2.0756,29.393941 0,30.479318 2.21816,25.325978 -18.36788,42.673202 l -12.29881,10.3638 v 60.33074 60.33074 l 6.03258,10.30546 c 3.31792,5.668 6.82493,10.30545 7.79336,10.30545 0.96841,0 2.75376,1.09724 3.96741,2.43832 1.81821,2.00909 2.20665,5.52977 2.20665,20 v 17.56168 h 13.17008 c 10.63194,0 13.52274,0.42548 15.00001,2.20778 1.3505,1.62937 1.82992,6.89748 1.82992,20.10852 0,16.18128 -0.24862,18.08244 -2.58818,19.79222 -3.88092,2.83624 -272.276066,2.83624 -276.156991,0 z M 337.0115,302.25945 v -4 H 229.69643 c -102.46528,0 -107.33606,0.10894 -107.77944,2.41122 -1.26939,6.59144 -6.65633,6.2958 108.05571,5.93006 l 107.0388,-0.34128 z m -9.48535,-37 c 1.07339,-1.70181 1.07339,-2.96485 0,-4.66667 -1.376,-2.18161 -7.69509,-2.35558 -97.1792,-2.67554 -69.59258,-0.24883 -96.20246,0.0685 -97.52147,1.16326 -2.24575,1.8638 -2.34278,5.45015 -0.20529,7.58764 1.23264,1.23264 24.02959,1.52874 97.52147,1.26667 89.67975,-0.3198 96.00843,-0.49367 97.38449,-2.67536 z m -9.89489,-19.57901 c 1.78505,-3.33542 1.76379,-3.51363 -0.715,-5.99242 -1.86101,-1.86101 -11.61328,-2.09524 -87.23809,-2.09524 -75.62482,0 -85.37709,0.23423 -87.2381,2.09524 -2.47879,2.47879 -2.50005,2.657 -0.71499,5.99242 1.34285,2.50914 3.72566,2.57901 87.95309,2.57901 84.22742,0 86.61024,-0.0699 87.95309,-2.57901 z m -1.25664,-127.84366 c 2.54729,-2.06268 2.7604,-2.85518 1.43413,-5.33334 l -1.55774,-2.91066 h -86.57284 -86.57285 l -1.55774,2.91066 c -1.32627,2.47816 -1.11316,3.27066 1.43414,5.33334 2.82042,2.28384 7.78854,2.42267 86.69645,2.42267 78.9079,0 83.87602,-0.13883 86.69645,-2.42267 z m 30.58377,-24.846684 c 2.20752,-2.6599 0.58635,-6.94277 -2.99105,-7.90182 -3.86173,-1.03528 -224.71662,-1.03528 -228.57835,0 -3.57739,0.95905 -5.19858,5.24192 -2.99106,7.90182 2.42144,2.91766 232.13902,2.91766 234.56046,0 z"
         id="path6864" />
      <path
         style="fill:#ffffff;fill-rule:evenodd;stroke:#000000;stroke-width:0;stroke-linecap:round;stroke-linejoin:round"
         d="m 40.504821,272.16248 c -6.142699,-0.54147 -7.276323,-1.06408 -7.473767,-3.4455 -0.132719,-1.60076 0.0096,-1.87678 1.211002,-2.34891 2.867728,-1.12695 22.324967,-1.35768 116.285454,-1.37895 l 97.00123,-0.022 v 3.55693 3.55693 l -8.06997,0.31828 c -11.94911,0.47126 -193.370926,0.2553 -198.953949,-0.23683 z"
         id="path7038"
         transform="translate(89.011496,33.592776)" />
      <path
         style="fill:#ffffff;fill-rule:evenodd;stroke:#000000;stroke-width:0;stroke-linecap:round;stroke-linejoin:round"
         d="m 49.651069,233.63294 c -5.359087,-0.27549 -6.055934,-0.52012 -6.842238,-2.40201 -0.863169,-2.06585 -0.204128,-4.71042 1.385935,-5.56139 1.979323,-1.0593 44.929013,-1.38985 115.737784,-0.89075 38.18714,0.26917 71.15456,0.68807 73.26094,0.93088 4.23622,0.48834 5.73714,1.43158 5.73714,3.60546 0,1.68562 -0.83999,2.59456 -2.95884,3.20167 -3.57946,1.02563 -35.11204,1.41619 -108.33221,1.34181 -41.295161,-0.0419 -76.389989,-0.1435 -77.988511,-0.22567 z"
         id="path7077"
         transform="translate(89.011496,33.592776)" />
      <path
         style="fill:#ffffff;fill-rule:evenodd;stroke:#000000;stroke-width:0;stroke-linecap:round;stroke-linejoin:round"
         d="m 71.206898,214.10283 c -16.527661,-0.35026 -17.722032,-0.56489 -18.89448,-3.39543 -0.55774,-1.3465 -0.549598,-1.76579 0.05525,-2.84489 1.130951,-2.0177 2.885534,-2.51606 10.500439,-2.98247 9.234789,-0.56563 146.386383,-0.57055 155.606633,-0.006 7.48454,0.45861 9.20103,0.92238 10.44592,2.8223 0.72208,1.10204 0.71789,1.33386 -0.0551,3.04815 -0.56546,1.25396 -1.3269,2.03628 -2.34903,2.41342 -0.94923,0.35025 -8.00563,0.70993 -18.95079,0.96598 -19.86721,0.46475 -114.114705,0.44991 -136.358791,-0.0215 z"
         id="path7116"
         transform="translate(89.011496,33.592776)" />
      <path
         style="fill:#ffffff;fill-rule:evenodd;stroke:#000000;stroke-width:0;stroke-linecap:round;stroke-linejoin:round"
         d="m 62.245486,85.742207 c -6.066061,-0.466324 -7.136463,-0.784622 -8.957735,-2.663698 l -1.596183,-1.646843 1.316281,-2.69038 1.31628,-2.690381 h 86.333371 86.33337 l 1.06532,2.192761 c 1.34333,2.764971 1.33873,3.686549 -0.0246,4.928279 -1.9512,1.777199 -3.18581,2.113193 -9.44871,2.571435 -7.04442,0.515424 -149.631328,0.514354 -156.337434,-0.0012 z"
         id="path7155"
         transform="translate(89.011496,33.592776)" />
      <path
         style="fill:#ffffff;fill-rule:evenodd;stroke:#000000;stroke-width:0;stroke-linecap:round;stroke-linejoin:round"
         d="M 81.379312,61.050027 C 37.728919,60.595038 24.793002,60.085051 23.475161,58.76721 c -0.389581,-0.389581 -0.70833,-1.443536 -0.70833,-2.34212 0,-2.30139 1.692729,-4.096612 4.373718,-4.638545 1.205174,-0.243613 38.258656,-0.56046 83.545001,-0.7144 88.79706,-0.301843 143.61162,0.131791 145.43629,1.150536 2.18038,1.217346 3.28195,5.102371 1.85214,6.532181 -0.41767,0.417666 -2.20946,0.820594 -4.48071,1.0076 -14.23215,1.171814 -112.612,1.907783 -172.113958,1.287565 z"
         id="path7194"
         transform="translate(89.011496,33.592776)" />
    </g>
  </g>
</svg>
