<?xml version="1.0" encoding="UTF-8" standalone="no"?>
<!-- Created with Inkscape (http://www.inkscape.org/) -->

<svg
   version="1.1"
   id="svg5181"
   width="379.25848"
   height="347.0712"
   viewBox="0 0 379.25848 347.0712"
   xmlns="http://www.w3.org/2000/svg"
   xmlns:svg="http://www.w3.org/2000/svg">
  <defs
     id="defs5185" />
  <g
     id="g5187"
     transform="translate(-50.398583,-42.159071)">
    <path
       style="fill:#ffffff;fill-rule:evenodd;stroke:#000000;stroke-width:0;stroke-linecap:round;stroke-linejoin:round"
       d=""
       id="path5796"
       transform="translate(50.398583,42.159071)" />
    <g
       id="g6007">
      <path
         style="fill:#000000;stroke-width:1.33333"
         d="m 177.33333,388.03219 c -8.43333,-0.57966 -23.73333,-2.04734 -34,-3.2615 -20.59985,-2.43621 -26.39005,-4.8393 -31.3804,-13.0238 -3.44356,-5.64768 -3.42011,-14.95066 0.0521,-20.64553 1.46392,-2.40105 2.66754,-5.10105 2.67471,-6 0.0278,-3.48512 6.50932,-15.2058 11.03786,-19.95995 3.78632,-3.97494 4.93621,-6.44037 5.64327,-12.09944 0.85643,-6.85464 0.66059,-7.45918 -5.50946,-17.00782 -3.5186,-5.44531 -10.09076,-13.83756 -14.6048,-18.64944 -9.19334,-9.79994 -10.37256,-12.5677 -13.030686,-30.58446 -1.02784,-6.96666 -5.3863,-33.81666 -9.68548,-59.66666 l -7.81668,-47 -4.6902,-0.0293 c -20.37752,-0.12721 -32.80437,-24.87962 -21.10668,-42.041259 9.59371,-14.074903 31.77705,-15.122776 42.80081,-2.021779 7.453516,8.857998 8.194006,22.390898 1.75739,32.117288 l -3.58932,5.42383 25.723786,40.57043 c 14.14808,22.31373 26.17378,40.58775 26.72378,40.60893 0.55,0.0212 1,-24.54928 1,-54.60105 v -54.63956 l -5,-2.56401 c -20.57926,-10.553074 -19.79041,-39.944109 1.30871,-48.759882 10.07527,-4.209717 22.85017,-1.583648 29.86867,6.139939 10.33664,11.375097 9.38697,29.19439 -2.06964,38.834504 -2.20507,1.855439 -4.77468,3.628679 -5.71024,3.940529 -1.20734,0.40245 1.32009,8.27601 8.70794,27.12753 5.72495,14.60828 15.0161,38.38268 20.64699,52.83198 5.63089,14.4493 10.60187,25.8493 11.0466,25.33333 0.90564,-1.05071 22.55944,-109.135136 22.49263,-112.271449 -0.0235,-1.1 -2.63103,-3.569255 -5.79467,-5.487234 -11.79279,-7.149488 -15.22933,-25.059653 -7.06804,-36.836394 10.79811,-15.581679 33.71709,-15.524312 44.55273,0.11152 3.18604,4.597466 3.68499,6.609794 3.68499,14.86215 0,8.21052 -0.51932,10.329444 -3.71516,15.158698 -2.04335,3.087696 -5.79335,6.605006 -8.33333,7.816244 -2.54,1.211238 -4.61839,3.141124 -4.61864,4.288634 -7.9e-4,3.600139 21.67962,111.366431 22.62161,112.444671 0.49249,0.56374 10.07889,-21.51158 21.30309,-49.05628 11.2242,-27.54468 20.18298,-50.23018 19.90838,-50.41222 -11.29099,-7.48517 -15.75444,-14.621231 -15.80334,-25.265945 -0.0572,-12.464779 7.35706,-22.208118 19.61007,-25.770166 6.34177,-1.843605 7.73216,-1.837996 14.25243,0.05749 5.57473,1.620616 8.46077,3.504186 12.63464,8.245948 3.03265,3.445272 5.7886,8.16613 6.27224,10.744178 2.33914,12.468714 -2.87298,24.294995 -13.43547,30.485025 l -6.02985,3.53374 v 51.8733 c 0,28.53032 0.45,51.85597 1,51.83478 0.55,-0.0212 12.5757,-18.2952 26.72378,-40.60893 l 25.72379,-40.57043 -3.58932,-5.42383 c -9.55884,-14.44437 -2.73168,-34.676241 13.51013,-40.036524 20.6851,-6.826695 40.139,11.242428 34.6959,32.226134 -2.83879,10.94384 -13.7949,19.68773 -24.75448,19.75615 l -4.69019,0.0293 -7.81668,47 c -4.29919,25.85 -8.65764,52.7 -9.68548,59.66666 -2.65813,18.01676 -3.83736,20.78452 -13.03069,30.58446 -4.51404,4.81188 -11.0862,13.20413 -14.6048,18.64944 -6.18564,9.57277 -6.36778,10.13802 -5.50127,17.0733 0.64999,5.20238 1.96732,8.39272 4.79548,11.6138 4.9014,5.5824 7.89049,12.63856 7.89049,18.62663 0,2.54831 1.3,6.83661 2.8889,9.52959 5.32989,9.03349 2.83594,21.32618 -5.55556,27.3835 -3.70314,2.67307 -25.42631,5.58226 -58.66667,7.85671 -22.273,1.52401 -100.03857,1.46981 -122.66667,-0.0855 z m 122.12639,-14.67311 c 32.93264,-2.23803 50.12373,-4.60689 51.99397,-7.1646 1.97899,-2.70644 1.08136,-6.49672 -2.25328,-9.51452 -1.9248,-1.74192 -2.53374,-4.11921 -2.53374,-9.89165 0,-11.51778 -2.76808,-13.84891 -18.7552,-15.79476 -31.44403,-3.82715 -47.44422,-4.67638 -87.91147,-4.66604 -40.56464,0.0107 -59.45527,1.01054 -88.66667,4.69454 -11.00056,1.38734 -12.35648,1.88852 -16.28014,6.01767 -2.48293,2.61295 -4.65054,6.58759 -5.16225,9.46575 -0.48515,2.7288 -2.00909,6.83228 -3.38652,9.11882 -5.64535,9.37138 -2.31876,12.01119 18.31545,14.53419 8.71573,1.06571 23.3468,2.46044 32.51346,3.0994 24.45088,1.70436 97.64338,1.765 122.12639,0.1012 z m -127.146,-59.43949 c 15.68451,-1.60126 34.41697,-2.21399 67.68628,-2.21399 33.26931,0 52.00177,0.61273 67.68628,2.21399 28.98881,2.95953 26.42205,3.33448 25.85645,-3.77707 -0.26208,-3.29508 0.1324,-7.73791 0.87674,-9.87293 1.28536,-3.6872 1.14161,-3.92023 -2.86646,-4.64687 -29.20086,-5.29392 -153.90516,-5.29392 -183.10602,0 -4.00807,0.72664 -4.15182,0.95967 -2.86646,4.64687 0.74428,2.13502 1.13882,6.57785 0.87674,9.87293 -0.5656,7.11155 -3.13236,6.7366 25.85645,3.77707 z M 153.33333,280.1362 c 5.5,-0.68807 27.25,-1.95909 48.33334,-2.82452 41.83998,-1.71743 102.25272,-0.13471 128.82581,3.37504 l 13.82583,1.82609 8.84084,-9.3369 c 4.86246,-5.13531 9.57317,-10.70032 10.46824,-12.36671 1.60164,-2.98187 1.4645,-3.05412 -8.66667,-4.56695 -72.47193,-10.82181 -157.45033,-10.82168 -229.92383,3.5e-4 -9.90534,1.47911 -10.23983,1.64551 -8.80613,4.38092 0.81967,1.56387 5.45306,7.14144 10.29644,12.3946 7.81659,8.47793 9.25561,9.48479 12.80613,8.96015 2.2,-0.32507 8.5,-1.154 14,-1.84207 z m -20.39859,-40.13033 12.26807,-1.53775 -4.36034,-6.83393 c -2.3982,-3.75867 -11.76265,-18.53394 -20.8099,-32.83394 -9.04725,-14.3 -17.15517,-26.77801 -18.01759,-27.72892 -0.92071,-1.01516 0.94834,13.47068 4.52733,35.08858 l 6.09538,36.81749 4.01449,-0.71689 c 2.20797,-0.3943 9.53512,-1.40888 16.28256,-2.25464 z m 240.53383,-33.91171 c 3.34232,-20.18835 5.59432,-36.22347 5.00447,-35.63361 -2.49269,2.49269 -42.39773,66.1928 -41.82523,66.76529 0.49446,0.49445 23.09646,4.65691 29.38135,5.41095 0.77231,0.0927 3.99479,-15.7363 7.43941,-36.54263 z M 199.48525,233.6272 c 0.98502,-0.54843 -1.53101,-8.46112 -7.47034,-23.49361 -4.92559,-12.46667 -13.22159,-33.46667 -18.43556,-46.66667 l -9.47995,-24 -0.0497,48.39785 -0.0497,48.39784 17,-0.90422 c 9.35,-0.49734 17.66836,-1.27636 18.48526,-1.73119 z m 116.40948,-43.82695 c -0.0579,-25.48333 -0.37612,-45.73333 -0.70717,-45 -8.47671,18.77718 -35.62859,88.10158 -34.60785,88.36104 0.78116,0.19858 8.02029,0.86402 16.08696,1.47875 8.06666,0.61473 15.71666,1.20227 17,1.30563 2.1829,0.1758 2.32654,-2.799 2.22806,-46.14542 z M 261.054,231.13359 c -0.32469,-1.28334 -5.03439,-24.68334 -10.46599,-52 -5.43158,-27.31667 -10.1962,-49.66667 -10.58801,-49.66667 -0.39181,0 -5.15643,22.35 -10.58801,49.66667 -5.4316,27.31666 -10.1413,50.71666 -10.46599,52 -0.54413,2.15064 1.10432,2.33333 21.054,2.33333 19.94968,0 21.59813,-0.18269 21.054,-2.33333 z M 85.435894,121.56948 c 4.96865,-4.96864 5.12112,-10.4437 0.44558,-16.00026 -5.76912,-6.856204 -16.38283,-5.30601 -19.83175,2.89655 -5.32675,12.66861 9.67866,22.81123 19.38617,13.10371 z m 325.101436,1.56411 c 4.06979,-3.35227 5.53075,-9.63104 3.41295,-14.66782 -3.44892,-8.20256 -14.06264,-9.752754 -19.83176,-2.89655 -4.67553,5.55656 -4.52307,11.03162 0.44559,16.00026 4.57018,4.5702 11.4999,5.24876 15.97322,1.56411 z M 332.10256,92.236155 c 6.60803,-6.608016 4.90025,-16.038759 -3.54321,-19.566668 -12.66535,-5.291918 -22.93064,11.199293 -12.45704,20.012245 5.55656,4.675539 11.03161,4.523069 16.00025,-0.445577 z M 164.48485,87.285105 C 172.12647,79.643483 166.80679,66.800257 156,66.800257 c -10.80679,0 -16.12647,12.843226 -8.48485,20.484848 2.54053,2.540528 4.89308,3.515152 8.48485,3.515152 3.59177,0 5.94432,-0.974624 8.48485,-3.515152 z m 83.61771,-9.715617 C 256.15405,69.518004 251.20175,56.860864 240,56.860864 c -7.09631,0 -12,4.95122 -12,12.116309 0,6.238683 6.00595,12.489751 12,12.489751 2.87,0 5.44257,-1.23744 8.10256,-3.897436 z"
         id="path5191" />
      <path
         style="fill:#ffffff;fill-rule:evenodd;stroke:#000000;stroke-width:0;stroke-linecap:round;stroke-linejoin:round"
         d="m 151.36516,331.5133 c -23.14446,-0.56484 -42.47827,-1.9886 -59.264667,-4.3643 -17.642514,-2.49686 -20.024752,-4.47194 -15.719537,-13.03286 1.044829,-2.07764 2.471905,-5.75969 3.17128,-8.18233 1.673142,-5.79578 5.271594,-11.34498 8.751412,-13.49563 8.040782,-4.96948 66.202362,-8.78772 118.722242,-7.79398 35.35489,0.66895 69.50284,3.42518 80.12446,6.46719 6.41284,1.83662 7.56782,3.63653 8.67148,13.51354 0.73451,6.57333 1.31248,8.83681 2.62386,10.27552 4.24131,4.65315 4.22898,8.08831 -0.0354,9.8701 -6.98835,2.91992 -38.86612,5.84445 -74.16558,6.8041 -29.44844,0.80059 -37.8519,0.79351 -72.87952,-0.0613 z"
         id="path5328"
         transform="translate(50.398583,42.159071)" />
      <path
         style="fill:#ffffff;fill-rule:evenodd;stroke:#000000;stroke-width:0;stroke-linecap:round;stroke-linejoin:round"
         d="m 96.597057,272.44558 c -0.221765,-0.35883 -0.453744,-3.33207 -0.515508,-6.60721 -0.06176,-3.27514 -0.171885,-7.21618 -0.244712,-8.75786 l -0.132412,-2.80306 6.406995,-0.91525 c 15.99646,-2.28513 38.47011,-3.06042 88.09612,-3.03913 48.6139,0.0208 68.36683,0.68147 85.39492,2.85595 8.85277,1.1305 9.0684,1.2708 7.97959,5.19223 -0.47556,1.71273 -0.86666,5.72691 -0.86911,8.9204 l -0.004,5.80633 h -4.31927 c -2.3756,0 -9.47502,-0.5441 -15.7765,-1.20911 -34.81558,-3.67418 -111.10992,-3.68178 -145.57044,-0.0145 -12.77418,1.35942 -19.83612,1.55672 -20.445203,0.57121 z"
         id="path5367"
         transform="translate(50.398583,42.159071)" />
      <path
         style="fill:#ffffff;fill-rule:evenodd;stroke:#000000;stroke-width:0;stroke-linecap:round;stroke-linejoin:round"
         d="m 286.3124,238.92531 c -26.42106,-3.75303 -84.45947,-5.75911 -125.95907,-4.35376 -32.96755,1.11643 -50.15137,2.13812 -62.613455,3.72281 -5.047232,0.64181 -9.837882,1.16692 -10.645889,1.16692 -0.808008,0 -3.30106,-1.71187 -5.540115,-3.80415 -4.618988,-4.31621 -15.882215,-17.50225 -15.882215,-18.59356 0,-1.04672 1.614366,-1.42247 13.614855,-3.16891 31.614259,-4.60083 58.220519,-6.49764 98.507479,-7.02277 43.82753,-0.57128 73.93083,0.90672 110.12016,5.40664 19.55905,2.43204 24.78102,3.42933 25.03795,4.7817 0.26358,1.38742 -3.45977,6.01188 -12.7112,15.78751 l -6.72063,7.10142 z"
         id="path5406"
         transform="translate(50.398583,42.159071)" />
      <path
         style="fill:#ffffff;fill-rule:evenodd;stroke:#000000;stroke-width:0;stroke-linecap:round;stroke-linejoin:round"
         d="m 62.46816,199.86519 c 0,-0.30442 -1.601669,-10.17018 -3.559265,-21.92392 -4.851469,-29.12905 -7.025101,-43.90684 -6.70366,-45.57595 0.271959,-1.41217 7.166018,8.9282 30.219696,45.32639 6.241623,9.85455 11.24231,18.01217 11.112638,18.12803 -0.129671,0.11586 -6.151868,0.99373 -13.382659,1.95081 -7.230792,0.95709 -14.168361,1.94445 -15.416822,2.19414 -1.248461,0.2497 -2.269928,0.20492 -2.269928,-0.0995 z"
         id="path5445"
         transform="translate(50.398583,42.159071)" />
      <path
         style="fill:#ffffff;fill-rule:evenodd;stroke:#000000;stroke-width:0;stroke-linecap:round;stroke-linejoin:round"
         d="m 113.77485,146.38847 c 0.0346,-32.40144 0.30426,-46.844686 0.84895,-45.47837 23.37861,58.64328 35.01606,89.28752 34.21284,90.09074 -0.37782,0.37781 -12.35847,1.41331 -27.70447,2.39452 l -7.40808,0.47366 z"
         id="path5484"
         transform="translate(50.398583,42.159071)" />
      <path
         style="fill:#ffffff;fill-rule:evenodd;stroke:#000000;stroke-width:0;stroke-linecap:round;stroke-linejoin:round"
         d="m 20.260946,80.968259 c -8.521124,-5.353753 -5.727258,-19.081874 4.326411,-21.258534 3.596468,-0.778649 9.333207,1.880836 11.447208,5.306793 3.444947,5.582889 3.099742,8.726821 -1.499607,13.657565 -2.704187,2.89903 -3.525649,3.298116 -7.376559,3.583708 -3.351003,0.248518 -4.914796,-0.04385 -6.897453,-1.289532 z"
         id="path5523"
         transform="translate(50.398583,42.159071)" />
      <path
         style="fill:#ffffff;fill-rule:evenodd;stroke:#000000;stroke-width:0;stroke-linecap:round;stroke-linejoin:round"
         d="m 99.168392,46.07204 c -3.949749,-2.683924 -5.926554,-7.751316 -4.741148,-12.15358 1.525533,-5.665397 7.479506,-9.683639 12.854476,-8.675288 6.39927,1.20051 10.06734,6.127978 9.43793,12.678349 -0.33026,3.437094 -0.86092,4.46236 -3.66207,7.075237 -2.85395,2.662143 -3.7716,3.055673 -7.12531,3.055673 -2.77516,0 -4.66282,-0.552687 -6.763878,-1.980391 z"
         id="path5562"
         transform="translate(50.398583,42.159071)" />
      <path
         style="fill:#ffffff;fill-rule:evenodd;stroke:#000000;stroke-width:0;stroke-linecap:round;stroke-linejoin:round"
         d="m 187.07909,38.400749 c -3.24654,-0.959782 -7.56166,-5.373359 -8.58151,-8.777326 -2.84435,-9.493593 7.30353,-17.523057 16.58176,-13.120247 7.62989,3.62062 7.86603,15.129506 0.40893,19.930184 -3.70696,2.386443 -5.54059,2.815434 -8.40918,1.967389 z"
         id="path5601"
         transform="translate(50.398583,42.159071)" />
      <path
         style="fill:#ffffff;fill-rule:evenodd;stroke:#000000;stroke-width:0;stroke-linecap:round;stroke-linejoin:round"
         d="m 268.71686,51.831212 c -8.55895,-4.847633 -9.00612,-14.166651 -0.96558,-20.123057 4.52082,-3.349012 12.50529,-1.316582 15.81338,4.025262 3.39567,5.48328 0.53534,13.539562 -5.88961,16.588401 -3.69318,1.752528 -5.13737,1.673436 -8.95819,-0.490606 z"
         id="path5640"
         transform="translate(50.398583,42.159071)" />
      <path
         style="fill:#ffffff;fill-rule:evenodd;stroke:#000000;stroke-width:0;stroke-linecap:round;stroke-linejoin:round"
         d="m 349.58143,82.097628 c -3.54758,-1.247582 -8.03483,-5.834052 -8.59991,-8.790064 -0.89308,-4.671874 3.67185,-11.615616 8.73479,-13.286538 8.02113,-2.647212 16.20585,5.824243 13.90012,14.387084 -0.85651,3.180821 -5.45951,8.081896 -7.59037,8.081896 -0.60937,0 -1.58791,0.165195 -2.17454,0.367099 -0.58662,0.201905 -2.50816,-0.13986 -4.27009,-0.759477 z"
         id="path5679"
         transform="translate(50.398583,42.159071)" />
      <path
         style="fill:#ffffff;fill-rule:evenodd;stroke:#000000;stroke-width:0;stroke-linecap:round;stroke-linejoin:round"
         d="m 169.43053,189.88105 c -0.38749,-0.62696 16.11215,-83.91721 19.05284,-96.17881 l 1.05641,-4.404806 0.89374,3.203495 c 0.49155,1.761923 4.1262,19.060801 8.07699,38.441941 12.41236,60.89052 12.02095,58.73061 10.73252,59.22503 -1.96115,0.75256 -39.33654,0.48328 -39.8125,-0.28685 z"
         id="path5718"
         transform="translate(50.398583,42.159071)" />
      <path
         style="fill:#ffffff;fill-rule:evenodd;stroke:#000000;stroke-width:0;stroke-linecap:round;stroke-linejoin:round"
         d="m 242.44254,191.82369 c -6.06872,-0.54604 -11.21358,-1.17234 -11.43303,-1.39179 -0.65044,-0.65043 25.07301,-67.06898 31.51098,-81.3621 1.41305,-3.13716 1.60065,-3.28366 2.05109,-1.60175 0.64747,2.4176 0.65082,78.62376 0.004,82.53927 l -0.49642,3.00328 -5.3011,-0.0971 c -2.91562,-0.0534 -10.26643,-0.54382 -16.33515,-1.08985 z"
         id="path5757"
         transform="translate(50.398583,42.159071)" />
      <path
         style="fill:#ffffff;fill-rule:evenodd;stroke:#000000;stroke-width:0;stroke-linecap:round;stroke-linejoin:round"
         d="m 310.73905,199.36592 c -1.98216,-0.37237 -8.01875,-1.47393 -13.41463,-2.44789 -6.01838,-1.08633 -9.81071,-2.13697 -9.81071,-2.718 0,-1.31983 37.03243,-60.88484 39.30299,-63.21711 1.1053,-1.13534 0.99764,-0.11578 -2.06782,19.58136 -4.46618,28.69756 -8.64389,49.75004 -9.83611,49.56643 -0.31338,-0.0483 -2.19155,-0.39241 -4.17372,-0.76479 z"
         id="path5874"
         transform="translate(50.398583,42.159071)" />
    </g>
  </g>
</svg>
