<?xml version="1.0" encoding="UTF-8" standalone="no"?>
<svg
   xmlns:dc="http://purl.org/dc/elements/1.1/"
   xmlns:cc="http://creativecommons.org/ns#"
   xmlns:rdf="http://www.w3.org/1999/02/22-rdf-syntax-ns#"
   xmlns:svg="http://www.w3.org/2000/svg"
   xmlns="http://www.w3.org/2000/svg"
   xmlns:sodipodi="http://sodipodi.sourceforge.net/DTD/sodipodi-0.dtd"
   xmlns:inkscape="http://www.inkscape.org/namespaces/inkscape"
   version="1.1"
   id="svg140"
   width="265"
   height="267.86639"
   viewBox="0 0 265 267.86639"
   sodipodi:docname="properKingSVG.svg"
   inkscape:version="1.0 (4035a4fb49, 2020-05-01)">
  <metadata
     id="metadata146">
    <rdf:RDF>
      <cc:Work
         rdf:about="">
        <dc:format>image/svg+xml</dc:format>
        <dc:type
           rdf:resource="http://purl.org/dc/dcmitype/StillImage" />
        <dc:title />
      </cc:Work>
    </rdf:RDF>
  </metadata>
  <defs
     id="defs144" />
  <sodipodi:namedview
     inkscape:object-nodes="false"
     inkscape:snap-to-guides="false"
     inkscape:snap-grids="false"
     inkscape:snap-others="false"
     inkscape:snap-nodes="true"
     inkscape:document-rotation="0"
     pagecolor="#ffffff"
     bordercolor="#666666"
     borderopacity="1"
     objecttolerance="10"
     gridtolerance="10"
     guidetolerance="10"
     inkscape:pageopacity="0"
     inkscape:pageshadow="2"
     inkscape:window-width="1920"
     inkscape:window-height="1080"
     id="namedview142"
     showgrid="true"
     inkscape:pagecheckerboard="true"
     height="200px"
     fit-margin-top="0"
     fit-margin-left="0"
     fit-margin-right="0"
     fit-margin-bottom="0"
     inkscape:zoom="11.216"
     inkscape:cx="127.18308"
     inkscape:cy="91.269548"
     inkscape:window-x="0"
     inkscape:window-y="0"
     inkscape:window-maximized="1"
     inkscape:current-layer="layer1">
    <inkscape:grid
       id="grid937"
       type="xygrid" />
  </sodipodi:namedview>
  <g
     inkscape:groupmode="layer"
     id="layer1"
     inkscape:label="SVG"
     style="opacity:1"
     transform="translate(-76.96872,-67.18686)">
    <path
       style="opacity:0.95;fill:#000000;stroke:#000000;stroke-width:8;stroke-miterlimit:4;stroke-dasharray:none;stroke-opacity:1"
       d="m 180.96846,329.68188 c -13.17766,-1.80172 -25.33438,-4.82264 -36.03068,-8.95356 -11.8655,-4.58246 -21.9536,-10.25149 -22.02596,-12.37754 -0.0311,-0.91516 -0.0349,-13.13893 -0.008,-27.16393 0.0266,-14.025 -0.28541,-25.98377 -0.69337,-26.57505 -0.40795,-0.59129 -3.66673,-3.02344 -7.24173,-5.4048 -3.575,-2.38136 -10.55515,-8.42259 -15.51144,-13.42495 -13.09139,-13.21306 -18.48856,-24.62572 -18.48856,-39.0952 0,-17.56031 11.42161,-37.6697 25.69737,-45.24392 9.86899,-5.23614 16.15997,-6.55695 28.71944,-6.02974 15.20764,0.63836 26.84268,4.69836 42.0832,14.68473 l 3,1.96576 0.007,-10.68842 c 0.006,-9.78754 0.24529,-11.1421 2.83413,-16.0712 3.70541,-7.05502 10.76001,-14.50367 16.25644,-17.16444 l 4.40243,-2.13117 v -9.4108 -9.41079 h -7.34501 c -8.10612,0 -10.65499,-1.46611 -10.65499,-6.12874 0,-4.02253 1.77718,-4.87126 10.2,-4.87126 h 7.8 v -5.2775 c 0,-6.08904 2.01871,-9.7225 5.40172,-9.7225 3.79858,0 5.59828,2.99894 5.59828,9.32874 v 5.67126 h 7.9433 c 7.07475,0 8.11351,0.24301 9.5,2.2225 2.05737,2.93732 1.96362,4.37057 -0.4433,6.7775 -1.64444,1.64444 -3.33333,2 -9.5,2 h -7.5 l 0.002,9.25 0.002,9.25 5.63614,2.94512 c 10.87707,5.68371 18.61242,18.94196 18.73686,32.11462 l 0.0667,7.05974 8.52778,-4.30229 c 11.44037,-5.7717 21.85456,-8.32029 33.93774,-8.30533 16.09304,0.0199 28.49754,4.76052 39.57748,15.12526 11.05511,10.34082 16.5133,21.6594 16.5133,34.24187 0,20.70152 -13.76695,40.37407 -40.75,58.23053 l -8.25,5.45956 v 25.31047 c 0,28.20093 0.54671,25.96522 -7.46908,30.5442 -12.30566,7.02954 -32.22273,13.08976 -51.19254,15.57648 -13.6728,1.79235 -36.20855,1.78997 -49.33838,-0.005 z"
       id="path220" />
    <path
       sodipodi:nodetypes="csscssssssscsscscssscssscssscscsscsscsscssscc"
       id="path1133"
       d="m 180.96846,329.68188 c -13.17766,-1.80172 -25.33438,-4.82264 -36.03068,-8.95356 -11.8655,-4.58246 -21.9536,-10.25149 -22.02596,-12.37754 -0.0311,-0.91516 -0.0349,-13.13893 -0.008,-27.16393 0.0266,-14.025 -0.28541,-25.98377 -0.69337,-26.57505 -0.40795,-0.59129 -3.66673,-3.02344 -7.24173,-5.4048 -3.575,-2.38136 -10.55515,-8.42259 -15.51144,-13.42495 -13.09139,-13.21306 -18.48856,-24.62572 -18.48856,-39.0952 0,-17.56031 11.42161,-37.6697 25.69737,-45.24392 9.86899,-5.23614 16.15997,-6.55695 28.71944,-6.02974 15.20764,0.63836 20.89727,1.03274 35.23585,8.26533 l 8.67045,4.42653 0.114,-7.79969 c 0.1815,-12.41801 7.19609,-26.42024 18.44863,-31.5238 l 6.11427,-2.77311 c 0,0 0,-6.27387 0,-9.4108 0,-3.13693 0,-9.41079 0,-9.41079 h -7.34501 c -8.10612,0 -10.65499,-1.46611 -10.65499,-6.12874 0,-4.02253 1.77718,-4.87126 10.2,-4.87126 h 7.8 v -5.2775 c 0,-6.08904 2.01871,-9.7225 5.40172,-9.7225 3.79858,0 5.59828,2.99894 5.59828,9.32874 v 5.67126 h 7.9433 c 7.93068,0 10.26503,0.120762 10.24892,5.004241 -0.019,5.759285 -2.26319,5.995759 -10.69222,5.995759 h -7.5 c 0,0 0.001,6.16667 0.002,9.25 6.7e-4,3.08333 0.002,9.25 0.002,9.25 l 5.63614,2.94512 c 10.87706,5.68372 18.6252,18.29318 18.73686,31.36569 l 0.0667,7.80867 8.52778,-4.30229 c 11.44037,-5.7717 21.85456,-8.32029 33.93774,-8.30533 16.09304,0.0199 28.49754,4.76052 39.57748,15.12526 11.05511,10.34082 16.5133,21.6594 16.5133,34.24187 0,20.70152 -13.76695,40.37407 -40.75,58.23053 l -8.25,5.45956 v 25.31047 c 0,28.20093 0.54671,25.96522 -7.46908,30.5442 -12.30566,7.02954 -32.22273,13.08976 -51.19254,15.57648 -13.6728,1.79235 -36.20855,1.78997 -49.33838,-0.005 z"
       style="opacity:0.947533;fill:#ffffff;fill-opacity:1;stroke:#000000;stroke-width:5;stroke-miterlimit:4;stroke-dasharray:none;stroke-opacity:1" />
  </g>
</svg>
