<?xml version="1.0" encoding="UTF-8" standalone="no"?>
<svg
   xmlns:dc="http://purl.org/dc/elements/1.1/"
   xmlns:cc="http://creativecommons.org/ns#"
   xmlns:rdf="http://www.w3.org/1999/02/22-rdf-syntax-ns#"
   xmlns:svg="http://www.w3.org/2000/svg"
   xmlns="http://www.w3.org/2000/svg"
   xmlns:sodipodi="http://sodipodi.sourceforge.net/DTD/sodipodi-0.dtd"
   xmlns:inkscape="http://www.inkscape.org/namespaces/inkscape"
   sodipodi:docname="bishopBlack.svg"
   inkscape:version="1.0 (4035a4fb49, 2020-05-01)"
   id="svg3941"
   version="1.1"
   viewBox="0 0 89.958331 90.613948"
   height="90.613945mm"
   width="89.958328mm">
  <defs
     id="defs3935" />
  <sodipodi:namedview
     inkscape:window-maximized="1"
     inkscape:window-y="0"
     inkscape:window-x="0"
     inkscape:window-height="998"
     inkscape:window-width="1920"
     inkscape:pagecheckerboard="true"
     showgrid="false"
     inkscape:document-rotation="0"
     inkscape:current-layer="layer10"
     inkscape:document-units="mm"
     inkscape:cy="172.22109"
     inkscape:cx="155.74101"
     inkscape:zoom="1.8189807"
     inkscape:pageshadow="2"
     inkscape:pageopacity="0.0"
     borderopacity="1.0"
     bordercolor="#666666"
     pagecolor="#ffffff"
     id="base" />
  <metadata
     id="metadata3938">
    <rdf:RDF>
      <cc:Work
         rdf:about="">
        <dc:format>image/svg+xml</dc:format>
        <dc:type
           rdf:resource="http://purl.org/dc/dcmitype/StillImage" />
        <dc:title></dc:title>
      </cc:Work>
    </rdf:RDF>
  </metadata>
  <g
     transform="translate(-11.548339,-10.151457)"
     inkscape:label="svg"
     id="layer10"
     inkscape:groupmode="layer">
    <g
       id="g2372">
      <g
         id="g1696">
        <path
           style="fill:#d4d4d4;fill-opacity:1;stroke-width:0.352777"
           d="m 15.166569,100.42125 c -1.504326,-0.434443 -3.61823,-2.564683 -3.61823,-3.646183 0,-0.519319 0.686237,-1.592599 1.791513,-2.801948 3.58914,-3.927092 7.660999,-4.978342 20.609875,-5.320922 8.54585,-0.2261 15.260425,-0.825019 14.111115,-1.258679 -0.388059,-0.14642 -2.101512,-0.59105 -3.807675,-0.98806 -7.305817,-1.700029 -10.238071,-4.3532 -9.683486,-8.76182 0.606801,-4.823729 1.791028,-7.88812 3.988182,-10.320102 l 1.232019,-1.363699 -1.156187,-0.717029 c -2.84873,-1.766681 -5.570393,-5.830871 -6.427067,-9.597379 -2.388782,-10.502673 3.476628,-21.439532 15.313165,-28.553492 1.577019,-0.94782 3.055678,-1.7861 3.285929,-1.86285 0.262228,-0.0874 0.0384,-0.59056 -0.599231,-1.34678 -1.450679,-1.72061 -1.970389,-3.18245 -1.961521,-5.517434 0.0181,-4.754146 3.506441,-8.213416 8.28253,-8.213416 3.405392,0 6.019591,1.66492 7.455303,4.748085 1.377939,2.959105 1.003228,6.047565 -1.061972,8.753135 l -1.16282,1.52337 1.4335,0.68979 c 4.374017,2.10475 10.332717,6.9959 13.089857,10.744692 3.77128,5.127699 5.62747,11.847157 4.78599,17.325448 -0.69151,4.501959 -3.02679,8.58262 -6.22679,10.880691 l -1.56693,1.12528 1.25001,1.46036 c 1.69445,1.979589 2.80541,4.466029 3.49037,7.811789 0.47369,2.3138 0.50166,3.15832 0.16185,4.88555 -0.37104,1.885981 -0.56798,2.20301 -2.03376,3.27393 -1.96442,1.43523 -5.52944,2.809811 -8.75985,3.37756 -1.313446,0.230851 -2.517946,0.531891 -2.676646,0.669001 -0.50887,0.43959 6.054666,1.007769 14.223276,1.231239 11.03476,0.301892 13.24694,0.693952 17.15903,3.041052 2.48537,1.49112 5.418752,4.202909 5.418752,5.00942 0,1.130498 -2.516102,3.358511 -4.320312,3.825641 -1.4882,0.38531 -2.03762,0.33952 -4.93889,-0.41162 -3.07939,-0.797271 -4.04424,-0.857681 -17.02275,-1.065852 -11.421517,-0.18319 -14.193917,-0.326721 -16.322966,-0.84504 -2.43478,-0.592751 -2.675922,-0.593651 -4.7625,-0.01781 -1.821399,0.50269 -4.645062,0.651661 -16.485359,0.869672 -13.024174,0.239812 -14.519338,0.329183 -16.909474,1.01077 -2.825212,0.80565 -3.798843,0.86737 -5.57785,0.3536 z m 6.965103,-4.377153 c 2.289911,-0.550979 4.113986,-0.628568 13.559694,-0.576789 11.070618,0.0607 15.522105,-0.233061 18.738465,-1.236509 1.69845,-0.529892 1.92396,-0.517972 4.7625,0.251669 2.820831,0.764839 3.66581,0.81184 15.856007,0.882039 10.87251,0.0626 13.28814,0.170791 15.52222,0.695171 3.21663,0.75501 5.99722,1.051251 5.99722,0.638929 0,-0.3796 -3.16347,-2.469819 -4.72616,-3.12275 -1.77762,-0.742738 -6.5378,-1.22718 -12.0585,-1.22718 -10.03316,0 -17.868098,-1.072988 -21.583845,-2.955909 -1.562201,-0.79162 -1.757773,-0.815329 -2.691321,-0.326191 -3.98866,2.089872 -9.155316,2.88671 -21.359421,3.2942 -9.895426,0.330401 -13.687612,0.815181 -15.53532,1.985981 -1.254092,0.794649 -2.478761,1.946219 -2.478761,2.330799 0,0.437182 2.758503,0.145812 5.997222,-0.63346 z M 66.569771,83.192718 c 1.845567,-0.38576 4.370607,-1.216231 5.644437,-1.856441 2.003919,-1.244527 1.87019,-1.236547 2.52605,-3.451489 H 56.366753 37.99323 l 0.220127,0.970139 c 0.324821,1.431542 1.760291,2.46543 4.732202,3.40836 2.297071,0.728822 4.085487,1.08045 8.995831,1.768772 2.460191,0.34485 11.423272,-0.169432 14.628381,-0.839341 z m 7.420227,-9.3766 c 0,-0.786601 -1.99398,-3.81467 -3.31193,-5.02952 l -1.61119,-1.485141 H 56.386851 43.706816 l -1.629717,1.62972 c -1.515205,1.5152 -3.012096,3.85401 -3.012096,4.706231 0,0.24898 5.610008,0.366829 17.462497,0.366829 9.604381,0 17.462498,-0.0846 17.462498,-0.188119 z m -3.00085,-10.946972 c 2.12097,-1.006459 3.99613,-2.93774 5.17252,-5.327337 0.95614,-1.942201 1.16689,-2.821962 1.2893,-5.382221 0.18579,-3.885991 -1.219433,-7.825079 -3.156581,-11.122566 -3.196413,-5.441058 -6.630876,-8.296286 -13.161475,-12.044885 -4.420356,-2.537308 -4.753131,-2.31374 -9.047451,-0.14838 -5.934086,2.99218 -10.086893,6.44632 -13.016746,10.826799 -5.713429,8.54229 -4.809268,18.367921 2.093828,22.753863 l 1.568373,0.996479 H 56.27867 c 11.558098,0 13.718518,-0.081 14.710478,-0.551752 z M 55.682696,52.457383 c -0.446209,-0.493059 -0.598961,-1.306989 -0.598961,-3.191698 v -2.529861 h -2.390939 c -2.855532,0 -3.959051,-0.5921 -3.959051,-2.12426 0,-1.380889 0.8245,-1.756291 3.857361,-1.756291 h 2.492629 v -2.62064 c 0,-2.946699 0.50542,-3.842729 2.064649,-3.660319 1.247691,0.14596 1.804401,1.399161 1.810711,4.076091 l 0.005,2.204868 h 2.59116 c 2.799501,0 3.75884,0.519692 3.75884,2.036241 0,1.236361 -1.305038,1.84431 -3.95905,1.84431 h -2.39095 l -0.005,2.20486 c -0.003,1.212681 -0.20497,2.601741 -0.449138,3.08681 -0.560523,1.11352 -2.00923,1.333812 -2.827261,0.429889 z m 3.372766,-30.205866 c 2.82018,-1.84786 2.718469,-5.822588 -0.19888,-7.7715 -3.73925,-2.497982 -8.658031,1.849514 -6.598531,5.83215 1.361231,2.63233 4.41157,3.50261 6.797411,1.93935 z"
           id="path3957"
           sodipodi:nodetypes="csssscsscssscccssscsssscssssscssssssscssccssssssssssssssssccccsssssscccsssscssssccscscsscssscssccsssccssssss" />
        <path
           style="opacity:0.947533;fill:#2a2a2a;fill-opacity:1;stroke:none;stroke-width:0.47649"
           d="M 104.25947,191.091 C 91.080325,177.90157 86.80111,158.03271 92.574995,136.8387 96.73638,121.56364 105.7994,106.93615 118.85946,94.416233 c 9.24729,-8.864843 20.28666,-16.338522 35.36251,-23.940514 14.72638,-7.425778 16.46317,-7.429111 31.04177,-0.05958 11.53596,5.831461 27.33142,16.308807 34.38549,24.599798 10.22718,12.020523 21.83202,27.910793 25.89347,42.499813 6.06052,21.76983 3.35288,40.24647 -9.08184,52.21666 -4.83716,5.03849 -10.74641,10.21879 -14.79076,11.03972 -40.11905,0.759 -58.22916,0.23219 -104.10714,0.22605 -4.58462,-3.06129 -9.67768,-6.31468 -13.30349,-9.90718 z m 70.34201,-29.52361 c 3.55073,-1.83616 4.63852,-5.77545 4.65131,-16.84428 l 0.007,-6.12196 7.94643,-0.16902 c 8.59338,-0.18278 11.04906,-0.58914 13.56147,-2.24408 1.79726,-1.18387 2.5262,-2.71175 2.49063,-5.22042 -0.0332,-2.34323 -0.64885,-3.75176 -2.21623,-5.07062 -2.0734,-1.74465 -5.94329,-2.34492 -15.22513,-2.36168 l -6.47854,-0.0117 -0.16403,-7.76786 c -0.1419,-6.72006 -0.2689,-8.09083 -0.94147,-10.16222 -1.33375,-4.10768 -3.25837,-5.696854 -6.98361,-5.766432 -5.54577,-0.10358 -6.95748,3.515102 -6.98031,17.892942 l -0.009,5.80357 -6.51786,0.003 c -10.68231,0.004 -14.66139,0.79598 -16.45988,3.27426 -0.8598,1.1848 -1.15382,3.92859 -0.62958,5.87543 1.20397,4.47123 5.09303,5.81315 16.91089,5.83514 l 6.69643,0.0123 0.006,5.98214 c 0.007,6.82534 0.45353,11.89635 1.20468,13.68276 1.47982,3.51931 5.7811,5.11101 9.13075,3.37884 z"
           id="path1680"
           transform="matrix(0.26458333,0,0,0.26458333,11.548339,10.151457)"
           sodipodi:nodetypes="csssssscccccccssssscssscccsscccscc" />
        <path
           style="opacity:0.947533;fill:#2a2a2a;fill-opacity:1;stroke:none;stroke-width:0.47649"
           d="m 104.1701,240.03373 c 0.009,-4.24975 6.1246,-13.70269 17.59464,-24.01035 31.83646,0 63.67291,0 95.50937,0 7.21989,4.71466 19.66938,21.465 18.45869,24.62716 -3.89095,1.11364 -129.00243,1.13143 -131.5627,-0.61681 z"
           id="path1682"
           transform="matrix(0.26458333,0,0,0.26458333,11.548339,10.151457)"
           sodipodi:nodetypes="ccccc" />
        <path
           style="opacity:0.947533;fill:#2a2a2a;fill-opacity:1;stroke:none;stroke-width:0.47649"
           d="m 148.70582,278.68974 c -20.07696,-3.49207 -48.56629,-6.25872 -48.49665,-22.66636 46.11751,0 95.94487,-0.24733 138.35252,0 -0.0504,14.79636 -20.34506,17.61137 -35.38558,20.90539 -27.87249,4.4077 -37.28623,4.49418 -54.47029,1.76097 z"
           id="path1684"
           transform="matrix(0.26458333,0,0,0.26458333,11.548339,10.151457)"
           sodipodi:nodetypes="ccccc" />
        <path
           style="opacity:0.947533;fill:#2a2a2a;fill-opacity:1;stroke:none;stroke-width:0.47649"
           d="m 315.01721,327.38232 c -29.70368,-5.61516 -54.40244,-5.31025 -74.77568,-5.47217 -32.10448,-0.24406 -45.41569,-0.61741 -50.86589,-1.42669 -2.06596,-0.30676 -6.90693,-1.35542 -10.75771,-2.33035 -8.67174,-2.19547 -10.81387,-2.28819 -16.12885,-0.69811 -6.69285,2.00229 -13.46304,3.12443 -23.67612,3.92425 -8.1555,0.63868 -36.1956,1.12313 -51.42857,0.88852 -19.260905,0.36875 -41.097081,1.45582 -58.928571,4.45564 -4.580127,0.7473 -10.520466,0.97394 -10.866173,0.41457 -0.280102,-0.45321 1.800239,-2.95543 4.080458,-4.90794 9.486256,-8.12291 17.812686,-9.5892 64.642857,-11.38365 45.274439,-1.73485 62.542469,-4.26212 77.678569,-11.36872 3.19742,-1.50123 5.0499,-2.1704 5.9503,-2.14942 0.78729,0.0183 2.98962,0.81713 5.53571,2.00779 7.21734,3.37515 13.69045,5.31083 24.09206,7.20437 15.37219,2.7984 27.82534,3.68418 63.17193,4.49337 25.39644,0.58139 35.38255,1.89686 43.03572,5.66909 5.7935,2.8556 15.90056,9.87015 15.15253,10.51623 -0.41095,0.35495 -2.97878,0.42583 -5.91257,0.16322 z"
           id="path1686"
           transform="matrix(0.26458333,0,0,0.26458333,11.548339,10.151457)"
           sodipodi:nodetypes="ccssssccssssssssssc" />
      </g>
      <ellipse
         style="opacity:0.947533;fill:#2a2a2a;fill-opacity:1;stroke-width:0.134106"
         id="path2361"
         cx="56.226475"
         cy="18.36038"
         rx="4.7612629"
         ry="4.6248593"
         transform="matrix(1,0,0.00891391,0.99996027,0,0)" />
    </g>
  </g>
</svg>
