<?xml version="1.0" encoding="UTF-8" standalone="no"?>
<svg
   xmlns:dc="http://purl.org/dc/elements/1.1/"
   xmlns:cc="http://creativecommons.org/ns#"
   xmlns:rdf="http://www.w3.org/1999/02/22-rdf-syntax-ns#"
   xmlns:svg="http://www.w3.org/2000/svg"
   xmlns="http://www.w3.org/2000/svg"
   xmlns:sodipodi="http://sodipodi.sourceforge.net/DTD/sodipodi-0.dtd"
   xmlns:inkscape="http://www.inkscape.org/namespaces/inkscape"
   sodipodi:docname="bishop.svg"
   inkscape:version="1.0 (4035a4fb49, 2020-05-01)"
   id="svg3941"
   version="1.1"
   viewBox="0 0 89.958331 90.613948"
   height="90.613945mm"
   width="89.958328mm">
  <defs
     id="defs3935" />
  <sodipodi:namedview
     inkscape:window-maximized="1"
     inkscape:window-y="-8"
     inkscape:window-x="-8"
     inkscape:window-height="1017"
     inkscape:window-width="1920"
     inkscape:pagecheckerboard="true"
     showgrid="false"
     inkscape:document-rotation="0"
     inkscape:current-layer="layer10"
     inkscape:document-units="mm"
     inkscape:cy="53.523376"
     inkscape:cx="166.13439"
     inkscape:zoom="2.8"
     inkscape:pageshadow="2"
     inkscape:pageopacity="0.0"
     borderopacity="1.0"
     bordercolor="#666666"
     pagecolor="#ffffff"
     id="base" />
  <metadata
     id="metadata3938">
    <rdf:RDF>
      <cc:Work
         rdf:about="">
        <dc:format>image/svg+xml</dc:format>
        <dc:type
           rdf:resource="http://purl.org/dc/dcmitype/StillImage" />
        <dc:title></dc:title>
      </cc:Work>
    </rdf:RDF>
  </metadata>
  <g
     transform="translate(-11.548339,-10.151457)"
     inkscape:label="svg"
     id="layer10"
     inkscape:groupmode="layer">
    <path
       style="fill:#333333;fill-opacity:1;stroke-width:0.352777"
       d="m 15.166569,100.42125 c -1.504326,-0.434443 -3.61823,-2.564683 -3.61823,-3.646183 0,-0.519319 0.686237,-1.592599 1.791513,-2.801948 3.58914,-3.927092 7.660999,-4.978342 20.609875,-5.320922 8.54585,-0.2261 15.260425,-0.825019 14.111115,-1.258679 -0.388059,-0.14642 -2.101512,-0.59105 -3.807675,-0.98806 -7.305817,-1.700029 -10.238071,-4.3532 -9.683486,-8.76182 0.606801,-4.823729 1.791028,-7.88812 3.988182,-10.320102 l 1.232019,-1.363699 -1.156187,-0.717029 c -2.84873,-1.766681 -5.570393,-5.830871 -6.427067,-9.597379 -2.388782,-10.502673 3.476628,-21.439532 15.313165,-28.553492 1.577019,-0.94782 3.055678,-1.7861 3.285929,-1.86285 0.262228,-0.0874 0.0384,-0.59056 -0.599231,-1.34678 -1.450679,-1.72061 -1.970389,-3.18245 -1.961521,-5.517434 0.0181,-4.754146 3.506441,-8.213416 8.28253,-8.213416 3.405392,0 6.019591,1.66492 7.455303,4.748085 1.377939,2.959105 1.003228,6.047565 -1.061972,8.753135 l -1.16282,1.52337 1.4335,0.68979 c 4.374017,2.10475 10.332717,6.9959 13.089857,10.744692 3.77128,5.127699 5.62747,11.847157 4.78599,17.325448 -0.69151,4.501959 -3.02679,8.58262 -6.22679,10.880691 l -1.56693,1.12528 1.25001,1.46036 c 1.69445,1.979589 2.80541,4.466029 3.49037,7.811789 0.47369,2.3138 0.50166,3.15832 0.16185,4.88555 -0.37104,1.885981 -0.56798,2.20301 -2.03376,3.27393 -1.96442,1.43523 -5.52944,2.809811 -8.75985,3.37756 -1.313446,0.230851 -2.517946,0.531891 -2.676646,0.669001 -0.50887,0.43959 6.054666,1.007769 14.223276,1.231239 11.03476,0.301892 13.24694,0.693952 17.15903,3.041052 2.48537,1.49112 5.418752,4.202909 5.418752,5.00942 0,1.130498 -2.516102,3.358511 -4.320312,3.825641 -1.4882,0.38531 -2.03762,0.33952 -4.93889,-0.41162 -3.07939,-0.797271 -4.04424,-0.857681 -17.02275,-1.065852 -11.421517,-0.18319 -14.193917,-0.326721 -16.322966,-0.84504 -2.43478,-0.592751 -2.675922,-0.593651 -4.7625,-0.01781 -1.821399,0.50269 -4.645062,0.651661 -16.485359,0.869672 -13.024174,0.239812 -14.519338,0.329183 -16.909474,1.01077 -2.825212,0.80565 -3.798843,0.86737 -5.57785,0.3536 z m 6.965103,-4.377153 c 2.289911,-0.550979 4.113986,-0.628568 13.559694,-0.576789 11.070618,0.0607 15.522105,-0.233061 18.738465,-1.236509 1.69845,-0.529892 1.92396,-0.517972 4.7625,0.251669 2.820831,0.764839 3.66581,0.81184 15.856007,0.882039 10.87251,0.0626 13.28814,0.170791 15.52222,0.695171 3.21663,0.75501 5.99722,1.051251 5.99722,0.638929 0,-0.3796 -3.16347,-2.469819 -4.72616,-3.12275 -1.77762,-0.742738 -6.5378,-1.22718 -12.0585,-1.22718 -10.03316,0 -17.868098,-1.072988 -21.583845,-2.955909 -1.562201,-0.79162 -1.757773,-0.815329 -2.691321,-0.326191 -3.98866,2.089872 -9.155316,2.88671 -21.359421,3.2942 -9.895426,0.330401 -13.687612,0.815181 -15.53532,1.985981 -1.254092,0.794649 -2.478761,1.946219 -2.478761,2.330799 0,0.437182 2.758503,0.145812 5.997222,-0.63346 z M 66.569771,83.192718 c 1.845567,-0.38576 4.370607,-1.216231 5.644437,-1.856441 2.05567,-1.033139 2.31691,-1.28243 2.4155,-2.30496 l 0.11055,-1.146529 H 56.366753 37.99323 l 0.220127,0.970139 c 0.324821,1.431542 1.760291,2.46543 4.732202,3.40836 2.297071,0.728822 4.085487,1.08045 8.995831,1.768772 2.460191,0.34485 11.423272,-0.169432 14.628381,-0.839341 z m 7.420227,-9.3766 c 0,-0.786601 -1.99398,-3.81467 -3.31193,-5.02952 l -1.61119,-1.485141 H 56.386851 43.706816 l -1.629717,1.62972 c -1.515205,1.5152 -3.012096,3.85401 -3.012096,4.706231 0,0.24898 5.610008,0.366829 17.462497,0.366829 9.604381,0 17.462498,-0.0846 17.462498,-0.188119 z m -3.00085,-10.946972 c 2.12097,-1.006459 3.99613,-2.93774 5.17252,-5.327337 0.95614,-1.942201 1.16689,-2.821962 1.2893,-5.382221 0.18579,-3.885991 -0.34411,-6.41501 -2.06023,-9.832742 -2.73208,-5.441058 -7.49506,-9.895669 -14.257826,-13.334709 -4.543131,-2.31029 -4.753131,-2.31374 -9.047451,-0.14838 -5.934086,2.99218 -10.086893,6.44632 -13.016746,10.826799 -5.713429,8.54229 -4.809268,18.367921 2.093828,22.753863 l 1.568373,0.996479 H 56.27867 c 11.558098,0 13.718518,-0.081 14.710478,-0.551752 z M 55.186182,52.209126 c -0.446209,-0.493059 -0.598961,-1.306989 -0.598961,-3.191698 v -2.529861 h -2.390939 c -2.855532,0 -3.959051,-0.5921 -3.959051,-2.12426 0,-1.380889 0.8245,-1.756291 3.857361,-1.756291 h 2.492629 v -2.62064 c 0,-2.946699 0.50542,-3.842729 2.064649,-3.660319 1.247691,0.14596 1.804401,1.399161 1.810711,4.076091 l 0.005,2.204868 h 2.59116 c 2.799501,0 3.75884,0.519692 3.75884,2.036241 0,1.236361 -1.305038,1.84431 -3.95905,1.84431 h -2.39095 l -0.005,2.20486 c -0.003,1.212681 -0.20497,2.601741 -0.449138,3.08681 -0.560523,1.11352 -2.00923,1.333812 -2.827261,0.429889 z m 3.86928,-29.957609 c 2.82018,-1.84786 2.718469,-5.822588 -0.19888,-7.7715 -3.73925,-2.497982 -8.658031,1.849514 -6.598531,5.83215 1.361231,2.63233 4.41157,3.50261 6.797411,1.93935 z"
       id="path3957" />
  </g>
</svg>
