<?xml version="1.0" encoding="UTF-8" standalone="no"?>
<svg
   xmlns:dc="http://purl.org/dc/elements/1.1/"
   xmlns:cc="http://creativecommons.org/ns#"
   xmlns:rdf="http://www.w3.org/1999/02/22-rdf-syntax-ns#"
   xmlns:svg="http://www.w3.org/2000/svg"
   xmlns="http://www.w3.org/2000/svg"
   xmlns:sodipodi="http://sodipodi.sourceforge.net/DTD/sodipodi-0.dtd"
   xmlns:inkscape="http://www.inkscape.org/namespaces/inkscape"
   sodipodi:docname="pawn.svg"
   inkscape:version="1.0 (4035a4fb49, 2020-05-01)"
   id="svg8"
   version="1.1"
   viewBox="0 0 63.96048 83.078911"
   height="83.078911mm"
   width="63.96048mm">
  <defs
     id="defs2" />
  <sodipodi:namedview
     inkscape:window-maximized="0"
     inkscape:window-y="0"
     inkscape:window-x="156"
     inkscape:window-height="1040"
     inkscape:window-width="1418"
     inkscape:pagecheckerboard="true"
     showgrid="false"
     inkscape:document-rotation="0"
     inkscape:current-layer="layer2"
     inkscape:document-units="mm"
     inkscape:cy="98.193937"
     inkscape:cx="115.70317"
     inkscape:zoom="3.959798"
     inkscape:pageshadow="2"
     inkscape:pageopacity="0.0"
     borderopacity="1.0"
     bordercolor="#666666"
     pagecolor="#ffffff"
     id="base" />
  <metadata
     id="metadata5">
    <rdf:RDF>
      <cc:Work
         rdf:about="">
        <dc:format>image/svg+xml</dc:format>
        <dc:type
           rdf:resource="http://purl.org/dc/dcmitype/StillImage" />
        <dc:title></dc:title>
      </cc:Work>
    </rdf:RDF>
  </metadata>
  <g
     transform="translate(-76.49696,-80.474141)"
     inkscape:label="svg"
     id="layer2"
     inkscape:groupmode="layer">
    <path
       style="fill:#333333;fill-opacity:1;stroke-width:0.352777"
       d="m 76.49725,162.23013 c 0.001,-5.19312 1.39404,-13.25008 3.05327,-17.66123 2.63177,-6.9967 7.24959,-13.27231 12.45197,-16.92216 1.27036,-0.89126 2.36918,-1.66335 2.44183,-1.71578 0.0727,-0.0524 -0.29419,-0.60196 -0.8152,-1.22114 -2.58679,-3.07422 -4.34965,-9.00511 -3.86853,-13.01511 0.56621,-4.71921 2.67284,-8.93809 5.99502,-12.006073 l 1.73162,-1.59913 -0.62298,-1.752256 c -0.89118,-2.50664 -0.67035,-6.43819 0.50502,-8.991199 1.071373,-2.32708 3.32695,-4.655701 5.74631,-5.932361 1.58393,-0.83582 2.16855,-0.93931 5.30776,-0.93955 2.94856,-2.3e-4 3.79281,0.13033 5.14194,0.79516 2.49012,1.22709 4.31942,2.99561 5.61727,5.43062 1.49103,2.797461 1.85513,6.601031 0.90883,9.49417 l -0.59203,1.810016 2.07921,2.059943 c 6.50765,6.44738 7.45527,16.30658 2.29405,23.86776 l -1.42432,2.08662 1.40345,0.80774 c 1.98735,1.14377 6.70154,5.7416 8.56637,8.35492 4.63767,6.49911 7.34029,14.86686 7.82477,24.22682 l 0.21456,4.14514 H 108.4772 76.49696 Z m 59.97192,-4.09893 c 0,-6.76584 -3.19339,-15.7979 -7.65912,-21.66278 -3.25599,-4.27611 -6.40029,-6.73214 -10.74337,-8.39173 l -2.42467,-0.92652 2.77595,-2.70065 c 3.13944,-3.05426 4.40185,-5.31614 4.9772,-8.91772 0.95839,-5.99926 -2.46915,-12.78984 -7.83822,-15.52894 -1.31795,-0.672363 -1.3488,-0.728173 -0.81308,-1.470873 3.17451,-4.400995 3.0659,-8.717485 -0.30376,-12.072846 -2.68887,-2.67745 -6.11519,-3.37228 -9.36814,-1.89978 -5.178677,2.3442 -6.788087,8.46752 -3.44024,13.089096 0.9997,1.38006 1.03259,1.51602 0.44951,1.8586 -2.515827,1.478043 -4.83914,3.558593 -6.12637,5.486233 -2.02724,3.03581 -2.64208,5.34309 -2.45676,9.21927 0.13287,2.77915 0.2995,3.41075 1.5399,5.83691 1.09562,2.14301 1.92534,3.18566 3.908373,4.91141 l 2.517477,2.19084 -2.539487,0.9262 c -8.880893,3.23904 -16.021893,13.39676 -18.002083,25.60704 -0.29806,1.83793 -0.54257,4.01639 -0.54335,4.84101 l -10e-4,1.4993 h 28.04583 28.04583 z"
       id="path848" />
  </g>
</svg>
