<?xml version="1.0" encoding="UTF-8" standalone="no"?>
<svg
   xmlns:dc="http://purl.org/dc/elements/1.1/"
   xmlns:cc="http://creativecommons.org/ns#"
   xmlns:rdf="http://www.w3.org/1999/02/22-rdf-syntax-ns#"
   xmlns:svg="http://www.w3.org/2000/svg"
   xmlns="http://www.w3.org/2000/svg"
   xmlns:sodipodi="http://sodipodi.sourceforge.net/DTD/sodipodi-0.dtd"
   xmlns:inkscape="http://www.inkscape.org/namespaces/inkscape"
   sodipodi:docname="queenPiece.svg"
   inkscape:version="1.0 (4035a4fb49, 2020-05-01)"
   id="svg3340"
   version="1.1"
   viewBox="0 0 100.1535 91.667458"
   height="91.667458mm"
   width="100.1535mm">
  <defs
     id="defs3334" />
  <sodipodi:namedview
     inkscape:window-maximized="1"
     inkscape:window-y="-8"
     inkscape:window-x="-8"
     inkscape:window-height="1017"
     inkscape:window-width="1920"
     inkscape:pagecheckerboard="true"
     showgrid="false"
     inkscape:document-rotation="0"
     inkscape:current-layer="layer9"
     inkscape:document-units="mm"
     inkscape:cy="151.22936"
     inkscape:cx="147.54991"
     inkscape:zoom="1.979899"
     inkscape:pageshadow="2"
     inkscape:pageopacity="0.0"
     borderopacity="1.0"
     bordercolor="#666666"
     pagecolor="#ffffff"
     id="base" />
  <metadata
     id="metadata3337">
    <rdf:RDF>
      <cc:Work
         rdf:about="">
        <dc:format>image/svg+xml</dc:format>
        <dc:type
           rdf:resource="http://purl.org/dc/dcmitype/StillImage" />
        <dc:title></dc:title>
      </cc:Work>
    </rdf:RDF>
  </metadata>
  <g
     transform="translate(-41.771462,-112.91627)"
     inkscape:label="SVG"
     id="layer9"
     inkscape:groupmode="layer">
    <path
       style="fill:#333333;fill-opacity:1;stroke-width:0.352777"
       d="m 77.445321,204.27969 c -6.81726,-0.38717 -15.61586,-1.40821 -16.64659,-1.93176 -1.19664,-0.60782 -2.82674,-2.27097 -3.20914,-3.2742 -0.51602,-1.35379 -0.35591,-2.83242 0.51559,-4.76138 0.45479,-1.00663 1.12837,-2.54461 1.49684,-3.41774 0.36848,-0.87312 1.26653,-2.24042 1.99569,-3.03845 1.12116,-1.22706 1.35865,-1.77141 1.5391,-3.52777 0.20624,-2.00743 0.16272,-2.15346 -1.30252,-4.36989 -0.83374,-1.26118 -2.49727,-3.34623 -3.69672,-4.63345 -1.30414,-1.39955 -2.39545,-2.95953 -2.7147,-3.88055 -0.29362,-0.84709 -1.52041,-7.65204 -2.72619,-15.12211 -1.20579,-7.47007 -2.348424,-14.47423 -2.539192,-15.56479 l -0.346852,-1.98285 -1.820159,-0.21557 c -4.759371,-0.56367 -7.560936,-5.56429 -5.571312,-9.94444 2.822643,-6.21403 12.002735,-4.83954 13.270245,1.98689 0.28363,1.52754 -0.27236,3.78144 -1.23454,5.00465 -0.3874,0.4925 -0.70436,1.05496 -0.70436,1.24992 0,0.39541 12.8623,20.75634 13.62625,21.57026 0.41179,0.43872 0.48486,-1.72762 0.48486,-14.3757 0,-9.90138 -0.12077,-14.89226 -0.36034,-14.89226 -1.01007,0 -3.21479,-1.98555 -4.03716,-3.63583 -1.13003,-2.26767 -1.13003,-3.86622 0,-6.13389 1.3173,-2.64349 3.19115,-3.7959 6.18715,-3.8051 1.93209,-0.006 2.55732,0.15071 3.74891,0.93927 2.20211,1.45728 3.10449,3.18177 3.10449,5.93277 0,2.71222 -0.90037,4.47416 -2.99453,5.86001 l -1.32013,0.87362 5.10456,12.94916 c 2.8075,7.12204 5.30905,13.50478 5.55899,14.18388 0.30608,0.8316 0.51876,1.06195 0.65141,0.70556 0.10833,-0.29105 1.53235,-7.24355 3.16449,-15.45001 l 2.96754,-14.92084 -0.92172,-0.4817 c -2.18663,-1.14273 -3.92033,-3.95778 -3.92033,-6.36551 0,-1.52284 0.81491,-3.57386 1.86892,-4.70382 2.33688,-2.50527 6.76601,-2.93508 9.31865,-0.90429 1.64427,1.30811 2.92354,3.72257 2.92354,5.5178 0,2.49071 -1.69967,5.29522 -3.90901,6.44997 l -0.9104,0.47584 3.02707,15.36645 c 1.66489,8.45154 3.115989,15.36699 3.224679,15.36766 0.10869,7.9e-4 2.66616,-6.07033 5.68327,-13.49112 l 5.48565,-13.49234 -0.92077,-0.57184 c -5.00834,-3.11041 -4.58031,-10.24043 0.74841,-12.46692 4.68006,-1.95545 9.78387,1.48859 9.79413,6.60908 0.005,2.25106 -2.13049,5.38026 -4.27768,6.26966 l -1.01202,0.41919 v 14.14391 c 0,12.01326 0.073,14.06609 0.48486,13.62734 0.76396,-0.81392 13.62625,-21.17485 13.62625,-21.57026 0,-0.19496 -0.31696,-0.75742 -0.70435,-1.24992 -2.28538,-2.90539 -1.3889,-7.67167 1.84554,-9.81213 3.5634,-2.35814 8.45249,-1.00486 10.19016,2.82059 1.98285,4.36525 -0.82813,9.38268 -5.57132,9.94444 l -1.82015,0.21557 -0.34686,1.98285 c -0.19077,1.09056 -1.3334,8.09472 -2.53919,15.56479 -1.20578,7.47007 -2.43257,14.27502 -2.72619,15.12211 -0.31925,0.92102 -1.41056,2.481 -2.7147,3.88055 -1.19945,1.28722 -2.86298,3.37227 -3.69672,4.63345 -1.46178,2.2112 -1.50835,2.36652 -1.3045,4.35091 0.16955,1.65054 0.44503,2.33082 1.39181,3.43691 1.20937,1.41288 1.99925,3.40035 1.99925,5.03044 0,0.50509 0.33705,1.56499 0.749,2.35533 1.32935,2.55041 0.51309,5.7853 -1.80733,7.16255 -2.85739,1.69596 -29.811379,2.8732 -45.449629,1.98505 z m 32.396849,-3.85951 c 6.64448,-0.53548 11.06135,-1.10903 11.55347,-1.50027 0.69527,-0.55274 0.51822,-1.7863 -0.44346,-3.08979 -0.68079,-0.92275 -0.83569,-1.45864 -0.67273,-2.3273 0.13576,-0.72367 -0.004,-1.5826 -0.38897,-2.39434 -0.74442,-1.56874 -1.33787,-1.74536 -8.6372,-2.57047 -7.82794,-0.88486 -30.977609,-0.88486 -38.805549,0 -7.21984,0.81613 -7.92115,1.02215 -8.99303,2.64186 -0.47818,0.72258 -0.97581,1.86681 -1.10584,2.54273 -0.13002,0.67593 -0.53035,1.65034 -0.8896,2.16536 -1.51553,2.17262 -0.28329,3.19891 4.52448,3.76829 3.32487,0.39376 10.965,0.98805 16.16538,1.25743 4.19449,0.21728 23.040699,-0.11857 27.693049,-0.4935 z M 73.506061,184.82694 c 5.51196,-0.61394 31.176929,-0.61394 36.688889,0 2.23132,0.24852 4.67716,0.54907 5.4352,0.66787 l 1.37826,0.21601 -0.22782,-1.66213 c -0.15232,-1.1113 -0.0608,-2.06191 0.27622,-2.86846 0.27721,-0.66347 0.39369,-1.27452 0.25883,-1.35786 -0.13487,-0.0833 -2.46688,-0.36463 -5.18225,-0.62507 -3.26609,-0.31326 -10.13091,-0.47352 -20.282889,-0.47352 -10.15197,0 -17.01679,0.16026 -20.28288,0.47352 -2.71537,0.26044 -5.04738,0.54172 -5.18225,0.62507 -0.13486,0.0833 -0.0184,0.69439 0.25883,1.35786 0.337,0.80655 0.42854,1.75716 0.27622,2.86846 l -0.22782,1.66213 1.37826,-0.21601 c 0.75804,-0.1188 3.20388,-0.41935 5.4352,-0.66787 z m -3.175,-9.10446 c 2.03729,-0.22457 9.89543,-0.49381 17.46253,-0.5983 13.438389,-0.18558 21.708199,0.10224 28.803009,1.00245 l 3.05026,0.38703 1.24555,-1.36439 c 0.68506,-0.75041 1.89213,-2.0724 2.68238,-2.93776 1.57103,-1.72034 1.76235,-2.33417 0.81946,-2.62917 -1.11504,-0.34886 -11.44612,-1.56119 -16.84513,-1.97675 -6.813,-0.5244 -24.584229,-0.5244 -31.397219,0 -5.39902,0.41556 -15.7301,1.62789 -16.84514,1.97675 -1.00883,0.31563 -0.73144,0.91882 1.52996,3.32698 1.18103,1.25767 2.37793,2.62558 2.65978,3.0398 0.43964,0.6461 0.69846,0.71251 1.82143,0.46739 0.71993,-0.15715 2.97584,-0.46946 5.01313,-0.69403 z m -7.70766,-10.25271 c 2.00789,-0.23453 3.78918,-0.55066 3.9584,-0.7025 0.16922,-0.15184 -2.37078,-4.4898 -5.64445,-9.63991 -3.27367,-5.15011 -5.99816,-9.15866 -6.05444,-8.90789 -0.0563,0.25076 0.61842,4.75914 1.49931,10.01861 0.88089,5.25946 1.60162,9.66952 1.60162,9.80012 0,0.1306 0.22249,0.15208 0.49442,0.0477 0.27193,-0.10435 2.13724,-0.38162 4.14514,-0.61616 z m 63.236749,-0.59252 c 0.64312,-3.13474 3.04378,-18.27495 2.9582,-18.65645 -0.0907,-0.4044 -11.92062,17.80754 -11.92062,18.35159 0,0.11917 0.51593,0.2338 1.14652,0.25474 0.63059,0.021 2.17841,0.23628 3.43959,0.47853 3.75943,0.72212 4.14807,0.68408 4.37631,-0.42841 z m -47.679779,-1.00261 c 1.89177,-0.1253 3.43958,-0.37198 3.43958,-0.54818 0,-0.51624 -9.56475,-24.78613 -9.91337,-25.15449 -0.18804,-0.19868 -0.31718,5.09333 -0.31718,12.99769 v 13.33283 l 1.67569,-0.20002 c 0.92163,-0.11 3.22351,-0.30253 5.11528,-0.42783 z m 34.131249,-12.38531 c 0,-7.80803 -0.12524,-12.4668 -0.32954,-12.25902 -0.36063,0.36675 -9.90102,23.6444 -9.90102,24.15755 0,0.17401 1.46844,0.36877 3.26319,0.4328 1.79476,0.064 4.09664,0.14936 5.11528,0.18962 l 1.85209,0.0732 z m -14.801429,11.62403 c 0.0373,-0.64708 -5.48503,-28.30993 -5.65067,-28.30589 -0.16556,0.004 -5.70277,27.65796 -5.66776,28.30589 0.008,0.14552 2.5543,0.26458 5.65874,0.26458 3.10445,0 5.65131,-0.11906 5.65969,-0.26458 z M 50.861114,134.35988 c 0.807447,-0.66958 1.465827,-2.51993 1.234707,-3.4701 -0.72928,-2.99817 -4.920949,-3.65928 -6.299451,-0.99355 -0.625993,1.21054 -0.647434,2.10799 -0.08011,3.35313 0.78016,1.71227 3.667619,2.33552 5.144854,1.11052 z m 85.397466,0.40482 c 0.62743,-0.21872 1.35015,-0.8328 1.64014,-1.39359 1.90464,-3.68316 -2.64636,-7.05119 -5.46856,-4.04709 -1.45551,1.54932 -0.79182,4.6906 1.15688,5.47554 1.05022,0.42303 1.37,0.41886 2.67154,-0.0349 z m -19.95071,-8.44371 c 1.88388,-1.48186 1.42678,-4.69799 -0.79874,-5.61983 -2.59808,-1.07616 -5.20839,0.83175 -4.81379,3.51845 0.37289,2.53888 3.54599,3.72692 5.61253,2.10138 z m -44.290169,-1.51152 c 0.44258,-0.4423 0.89638,-1.36916 1.00844,-2.0597 0.17118,-1.05484 0.0342,-1.44524 -0.85679,-2.44246 -0.87757,-0.98217 -1.31021,-1.18694 -2.50774,-1.18694 -1.98875,0 -3.37146,1.35634 -3.37146,3.30718 0,3.09442 3.54101,4.56702 5.72755,2.38192 z m 22.06517,-2.36903 c 1.1948,-0.93984 1.53594,-2.72962 0.79382,-4.16474 -0.67293,-1.30129 -1.53207,-1.8172 -3.02619,-1.8172 -1.49411,0 -2.35325,0.51591 -3.02618,1.8172 -1.68715,3.26259 2.34533,6.45628 5.25855,4.16474 z"
       id="path3917" />
  </g>
</svg>
